<svg xmlns="http://www.w3.org/2000/svg" xmlns:xlink="http://www.w3.org/1999/xlink" preserveAspectRatio="xMidYMid" width="300" height="71" viewBox="0 0 300 71">
  <defs>
    <style>

      .cls-2 {
        fill: #3b3b3c;
      }
    </style>
  </defs>
  <path d="M299.665,45.623 C299.665,45.623 300.445,46.403 300.445,46.403 C295.999,51.551 291.397,57.480 286.092,62.160 C280.632,66.918 274.002,70.506 266.982,70.506 C261.091,70.506 258.449,68.057 258.066,65.050 C253.108,68.126 248.780,69.492 245.454,69.492 C241.008,69.492 238.278,67.074 238.278,63.096 C238.278,61.530 238.657,59.780 239.336,57.940 C231.854,65.461 225.402,69.882 221.820,69.882 C219.870,69.882 218.778,68.556 218.778,65.826 C218.778,63.342 220.565,59.459 222.953,55.274 C214.081,64.441 205.990,69.882 201.697,69.882 C199.591,69.882 198.421,68.556 198.421,65.826 C198.421,63.896 200.633,59.462 203.829,54.029 C194.796,63.908 186.752,69.882 182.587,69.882 C180.637,69.882 179.545,68.556 179.545,65.826 C179.545,63.427 181.212,59.722 183.477,55.700 C175.084,64.576 167.715,69.882 163.791,69.882 C161.841,69.882 160.749,68.556 160.749,65.826 C160.749,57.870 172.683,44.687 177.207,41.177 C177.207,41.021 177.129,40.943 176.895,40.943 C172.137,40.943 155.913,54.359 149.906,63.564 C147.956,66.528 147.488,67.854 147.488,67.854 C147.332,68.166 147.098,68.322 146.552,68.322 C146.552,68.322 139.766,68.322 139.766,68.322 C139.688,68.322 139.454,68.322 139.454,68.088 C139.454,67.932 139.532,67.698 139.922,67.230 C141.677,65.169 144.015,62.185 146.512,58.832 C138.137,66.348 130.778,69.492 125.727,69.492 C121.280,69.492 118.550,67.074 118.550,63.096 C118.550,61.565 118.915,59.858 119.565,58.063 C112.135,65.510 105.734,69.882 102.172,69.882 C100.222,69.882 99.129,68.556 99.129,65.826 C99.129,58.650 110.986,44.999 114.418,41.021 C114.418,41.021 114.340,40.631 113.950,40.631 C110.908,40.631 97.257,48.275 88.677,67.854 C88.521,68.166 88.287,68.322 87.741,68.322 C87.741,68.322 82.359,68.322 82.359,68.322 C82.281,68.322 82.047,68.322 82.047,68.088 C82.047,67.932 82.125,67.698 82.515,67.230 C87.429,60.288 97.881,44.141 97.959,41.801 C97.959,41.801 97.881,41.411 97.491,41.411 C94.605,41.411 83.685,50.927 76.431,63.564 C74.637,66.684 74.013,67.854 74.013,67.854 C73.857,68.166 73.623,68.322 73.076,68.322 C73.076,68.322 66.290,68.322 66.290,68.322 C66.212,68.322 65.978,68.322 65.978,68.088 C65.978,67.932 66.056,67.698 66.446,67.230 C71.828,60.912 82.671,45.935 86.883,38.135 C87.273,37.355 87.351,36.887 88.209,36.887 C88.209,36.887 93.591,36.887 93.591,36.887 C94.371,36.887 94.761,37.043 94.761,37.355 C94.761,37.511 94.605,37.823 94.371,38.057 C91.953,40.397 87.741,45.545 84.465,50.381 C90.315,43.985 97.569,36.887 103.498,36.887 C104.512,36.887 104.980,37.355 104.980,38.135 C104.980,40.787 99.831,47.027 98.817,49.055 C104.278,42.971 114.808,35.873 121.906,35.873 C123.622,35.873 124.168,36.185 124.168,36.731 C124.168,37.355 123.310,38.369 122.452,39.383 C117.148,45.623 103.108,62.472 103.108,66.918 C103.108,67.698 103.576,67.932 104.122,67.932 C104.746,67.932 105.526,67.620 105.916,67.464 C108.975,66.021 114.003,62.181 121.025,54.782 C126.142,44.982 138.281,34.079 148.503,34.079 C150.688,34.079 151.702,35.093 151.702,36.731 C151.702,42.503 139.845,55.218 126.975,55.842 C125.649,58.494 124.869,61.068 124.869,63.096 C124.869,65.592 126.351,66.996 129.003,66.996 C133.484,66.996 141.328,62.893 150.766,52.973 C154.609,47.547 158.286,41.973 160.359,38.135 C160.749,37.355 160.827,36.887 161.685,36.887 C161.685,36.887 167.067,36.887 167.067,36.887 C167.847,36.887 168.237,37.043 168.237,37.355 C168.237,37.511 168.081,37.823 167.847,38.057 C165.585,40.241 159.735,47.261 156.303,52.955 C162.699,47.339 175.257,36.653 182.746,36.653 C184.462,36.653 185.008,36.965 185.008,37.433 C185.008,38.057 184.150,38.993 183.214,40.163 C178.221,46.637 164.649,62.628 164.649,66.918 C164.649,67.620 165.039,68.010 165.819,68.010 C166.131,68.010 166.599,67.854 167.535,67.464 C171.148,65.760 177.502,60.719 186.648,50.416 C189.760,45.465 193.080,40.668 194.756,37.745 C194.990,37.199 195.302,36.887 195.926,36.887 C195.926,36.887 201.230,36.887 201.230,36.887 C202.166,36.887 202.556,37.199 202.556,37.667 C202.556,37.901 202.400,38.291 202.166,38.525 C196.394,44.999 182.665,63.096 182.665,66.996 C182.665,67.698 183.055,68.166 183.913,68.166 C186.721,68.166 194.502,63.120 207.380,48.202 C209.316,45.116 211.405,41.898 213.475,38.759 C213.475,38.759 205.831,38.759 205.831,38.759 C205.675,38.759 205.597,38.681 205.597,38.525 C205.597,38.135 206.455,37.199 207.469,37.199 C209.809,37.199 212.149,37.121 214.567,37.121 C220.028,28.931 225.098,21.520 226.502,19.024 C226.970,18.244 226.970,18.088 227.828,18.010 C228.452,17.932 232.508,17.776 234.224,17.776 C235.082,17.776 235.472,17.854 235.472,18.166 C235.472,18.322 235.316,18.556 235.004,18.946 C232.742,21.520 227.048,28.853 220.964,37.121 C226.502,37.121 230.948,37.199 230.948,37.199 C231.338,37.199 231.494,37.277 231.494,37.433 C231.494,37.901 230.324,38.759 230.012,38.759 C230.012,38.759 219.794,38.759 219.794,38.759 C210.823,51.083 201.541,64.734 201.541,66.996 C201.541,67.698 202.009,68.166 202.945,68.166 C205.974,68.166 213.964,63.584 225.994,50.235 C229.074,45.349 232.334,40.632 233.989,37.745 C234.223,37.199 234.535,36.887 235.159,36.887 C235.159,36.887 240.463,36.887 240.463,36.887 C241.399,36.887 241.789,37.199 241.789,37.667 C241.789,37.901 241.633,38.291 241.399,38.525 C235.627,44.999 221.898,63.096 221.898,66.996 C221.898,67.698 222.288,68.166 223.146,68.166 C225.507,68.166 231.385,64.596 240.851,54.594 C246.024,44.843 258.073,34.079 268.231,34.079 C270.415,34.079 271.429,35.093 271.429,36.731 C271.429,42.503 259.573,55.218 246.702,55.842 C245.376,58.494 244.596,61.068 244.596,63.096 C244.596,65.592 246.078,66.996 248.730,66.996 C251.031,66.996 254.221,65.910 258.055,63.516 C258.553,58.838 263.580,53.490 269.946,53.267 C276.498,45.935 286.248,33.611 287.184,32.285 C287.574,31.817 287.730,31.739 288.042,31.739 C288.588,31.739 289.914,33.299 289.914,33.923 C289.914,34.079 289.836,34.235 289.680,34.313 C288.276,35.327 286.482,36.809 284.766,38.369 C282.816,44.453 285.468,57.168 280.398,64.656 C282.348,63.486 283.752,62.316 285.000,61.224 C289.134,57.636 293.815,52.643 299.665,45.623 ZM148.581,38.525 C148.581,37.433 147.957,36.809 146.631,36.809 C141.639,36.809 132.435,46.013 127.755,54.437 C138.831,53.891 148.581,42.893 148.581,38.525 ZM268.309,38.525 C268.309,37.433 267.685,36.809 266.359,36.809 C261.367,36.809 252.162,46.013 247.482,54.437 C258.558,53.891 268.309,42.893 268.309,38.525 ZM259.706,62.431 C261.853,60.950 264.175,59.082 266.637,56.793 C266.518,56.787 266.399,56.778 266.280,56.778 C263.188,56.778 260.342,59.621 259.706,62.431 ZM281.100,41.957 C281.100,41.957 279.642,43.785 277.559,46.293 C277.559,46.293 277.669,46.403 277.669,46.403 C275.664,48.976 273.682,51.304 271.736,53.404 C272.775,53.671 273.456,54.268 273.456,55.140 C273.456,56.154 272.442,57.480 270.648,58.416 C269.907,57.767 269.054,57.316 268.159,57.053 C265.175,59.919 262.306,62.234 259.603,64.057 C259.842,66.102 261.620,67.776 265.812,67.776 C277.902,67.776 280.866,46.247 281.100,41.957 ZM242.413,30.803 C240.697,30.803 239.995,29.867 239.995,28.541 C239.995,24.718 245.455,17.542 248.809,17.542 C249.511,17.542 251.227,17.932 251.227,20.194 C251.227,23.938 246.157,30.803 242.413,30.803 ZM203.180,30.803 C201.464,30.803 200.762,29.867 200.762,28.541 C200.762,24.718 206.222,17.542 209.576,17.542 C210.278,17.542 211.995,17.932 211.995,20.194 C211.995,23.938 206.924,30.803 203.180,30.803 ZM74.407,37.355 C75.421,37.355 76.435,37.355 77.527,37.277 C77.761,37.277 77.917,37.355 77.917,37.667 C77.917,38.135 75.889,41.333 75.343,42.581 C75.343,42.581 75.187,43.127 74.563,43.127 C74.173,43.127 73.003,43.049 71.521,42.971 C67.621,50.381 63.409,59.196 58.807,69.102 C58.807,69.102 58.651,69.804 57.636,69.804 C57.636,69.804 51.006,69.804 51.006,69.804 C50.148,69.804 49.914,69.570 49.914,69.336 C49.914,69.180 50.070,68.946 50.226,68.712 C54.204,62.472 60.211,52.643 66.217,42.503 C66.217,42.503 53.112,41.567 53.112,41.567 C41.958,56.856 29.555,70.740 13.955,70.740 C6.857,70.740 -0.008,67.776 -0.008,58.728 C-0.008,42.503 23.549,37.979 41.490,37.979 C41.490,37.979 51.162,37.979 51.162,37.979 C65.671,18.946 78.229,-0.009 93.284,-0.009 C95.468,-0.009 95.780,1.005 95.780,1.552 C95.780,1.786 95.702,1.864 95.702,1.864 C94.298,4.360 86.654,14.500 74.407,37.355 ZM32.910,40.787 C20.507,40.787 2.098,45.233 2.098,59.040 C2.098,65.982 8.027,68.478 14.033,68.478 C26.435,68.478 37.668,55.764 48.666,41.333 C43.284,41.021 37.824,40.787 32.910,40.787 ZM88.292,2.722 C86.888,2.722 78.229,4.282 55.764,37.901 C60.055,37.823 64.345,37.667 69.181,37.511 C79.165,20.740 88.526,4.438 88.526,2.878 C88.526,2.800 88.448,2.722 88.292,2.722 Z" id="path-1" class="cls-2" fill-rule="evenodd"/>
</svg>
