<svg xmlns="http://www.w3.org/2000/svg" xmlns:xlink="http://www.w3.org/1999/xlink" preserveAspectRatio="xMidYMid" width="258" height="92" viewBox="0 0 258 92">
  <defs>
    <style>

      .cls-2 {
        fill: #ffffff;
      }
    </style>
  </defs>
  <path d="M257.263,57.967 C257.263,57.967 258.043,58.747 258.043,58.747 C253.597,63.895 248.995,69.823 243.691,74.504 C238.231,79.262 231.600,82.850 224.580,82.850 C218.386,82.850 215.784,80.142 215.625,76.925 C210.357,80.331 205.763,81.836 202.272,81.836 C197.826,81.836 195.096,79.418 195.096,75.440 C195.096,73.462 195.693,71.192 196.748,68.814 C188.661,77.226 181.605,82.226 177.796,82.226 C175.846,82.226 174.754,80.900 174.754,78.170 C174.754,72.163 185.987,58.981 185.987,57.031 C185.987,55.705 185.051,53.053 184.115,53.053 C183.959,53.053 183.803,53.131 183.569,53.365 C181.931,55.237 180.371,57.187 178.732,59.137 C178.732,59.137 178.590,59.020 178.590,59.020 C167.126,73.214 156.158,82.226 151.043,82.226 C149.795,82.226 148.235,81.212 148.235,78.170 C148.235,76.220 149.327,73.411 150.887,70.291 C148.235,73.958 138.563,81.992 134.428,81.992 C133.180,81.992 132.322,81.212 132.322,79.418 C132.322,76.043 135.660,69.732 139.329,63.609 C129.052,75.179 119.246,82.226 114.360,82.226 C112.254,82.226 111.084,80.900 111.084,78.170 C111.084,75.889 114.174,70.108 118.329,63.314 C108.214,75.005 98.948,82.226 94.370,82.226 C92.420,82.226 91.328,80.900 91.328,78.170 C91.328,76.376 91.874,74.426 92.810,72.319 C89.768,75.596 84.229,81.602 79.549,81.602 C75.961,81.602 74.323,79.418 74.323,76.220 C74.323,73.911 75.157,71.037 76.677,67.982 C66.923,77.812 58.253,81.836 52.538,81.836 C48.092,81.836 45.362,79.418 45.362,75.440 C45.362,64.987 61.976,46.422 75.315,46.422 C77.499,46.422 78.513,47.437 78.513,49.075 C78.513,54.847 66.656,67.561 53.786,68.185 C52.460,70.837 51.680,73.411 51.680,75.440 C51.680,77.936 53.162,79.340 55.814,79.340 C60.598,79.340 69.213,74.669 79.509,63.232 C85.750,54.279 97.076,45.408 110.438,45.408 C111.140,45.408 111.452,45.642 111.452,45.954 C111.452,46.422 110.828,46.969 110.438,46.969 C94.838,46.969 78.613,74.348 78.613,78.560 C78.613,79.496 78.925,79.964 79.627,79.964 C84.775,79.964 93.122,69.823 97.412,64.519 C100.610,59.839 104.666,54.769 108.176,49.543 C108.176,49.543 108.488,49.231 109.034,49.231 C109.034,49.231 114.338,49.231 114.338,49.231 C115.275,49.231 115.665,49.543 115.665,50.011 C115.665,50.245 115.509,50.635 115.275,50.869 C107.318,58.825 94.448,73.490 94.448,79.340 C94.448,80.042 94.838,80.510 95.696,80.510 C98.660,80.510 107.162,74.894 121.359,57.967 C121.359,57.967 121.552,58.161 121.552,58.161 C123.044,55.822 124.596,53.441 126.138,51.103 C126.138,51.103 118.494,51.103 118.494,51.103 C118.338,51.103 118.260,51.025 118.260,50.869 C118.260,50.479 119.118,49.543 120.132,49.543 C122.472,49.543 124.812,49.465 127.230,49.465 C132.691,41.274 137.761,33.864 139.165,31.368 C139.633,30.588 139.633,30.432 140.491,30.354 C141.115,30.276 145.171,30.120 146.887,30.120 C147.745,30.120 148.135,30.198 148.135,30.510 C148.135,30.666 147.979,30.900 147.667,31.290 C145.405,33.864 139.711,41.196 133.627,49.465 C139.165,49.465 143.611,49.543 143.611,49.543 C144.001,49.543 144.157,49.621 144.157,49.777 C144.157,50.245 142.987,51.103 142.675,51.103 C142.675,51.103 132.457,51.103 132.457,51.103 C123.486,63.427 114.204,77.078 114.204,79.340 C114.204,80.042 114.672,80.510 115.608,80.510 C118.962,80.510 128.400,74.894 142.675,57.967 C142.675,57.967 142.755,58.047 142.755,58.047 C144.767,54.845 146.590,52.006 147.689,50.089 C147.923,49.543 148.235,49.231 148.859,49.231 C148.859,49.231 154.163,49.231 154.163,49.231 C155.099,49.231 155.489,49.543 155.489,50.011 C155.489,50.245 155.333,50.635 155.099,50.869 C149.327,57.343 135.443,75.440 135.443,79.886 C135.443,80.354 135.677,80.510 136.067,80.510 C138.173,80.510 148.235,73.021 153.851,65.143 C157.283,59.371 161.496,53.521 163.446,50.089 C163.680,49.543 163.992,49.231 164.616,49.231 C164.616,49.231 169.920,49.231 169.920,49.231 C170.856,49.231 171.246,49.543 171.246,50.011 C171.246,50.245 171.090,50.635 170.856,50.869 C165.084,57.343 151.121,74.738 151.121,79.340 C151.121,80.042 151.511,80.510 152.369,80.510 C155.333,80.510 163.836,74.894 178.032,57.967 C178.032,57.967 178.161,58.096 178.161,58.096 C178.161,58.096 183.335,51.961 183.335,51.961 C186.533,48.607 187.625,44.238 188.093,42.912 C188.249,42.522 188.249,41.820 188.717,41.820 C188.873,41.820 191.135,42.132 191.135,42.600 C191.135,43.380 189.341,45.642 189.341,49.075 C189.341,52.039 192.383,54.145 192.383,57.265 C192.383,59.371 191.213,61.165 189.185,63.427 C186.767,66.079 177.874,74.504 177.874,79.340 C177.874,80.042 178.264,80.510 179.123,80.510 C181.667,80.510 188.296,76.364 199.100,64.486 C204.839,55.468 215.739,46.422 225.049,46.422 C227.233,46.422 228.247,47.437 228.247,49.075 C228.247,54.847 216.391,67.561 203.521,68.185 C202.194,70.837 201.414,73.411 201.414,75.440 C201.414,77.936 202.897,79.340 205.549,79.340 C208.021,79.340 211.521,78.086 215.744,75.301 C216.537,70.905 221.138,66.145 226.987,65.660 C229.149,63.409 231.396,60.853 233.708,57.967 C233.708,57.967 233.915,58.174 233.915,58.174 C239.111,51.927 244.125,45.561 244.783,44.628 C245.173,44.160 245.329,44.082 245.641,44.082 C246.187,44.082 247.513,45.642 247.513,46.266 C247.513,46.422 247.435,46.578 247.279,46.656 C245.875,47.671 244.081,49.153 242.365,50.713 C240.415,56.797 243.067,69.511 237.997,77.000 C239.947,75.830 241.351,74.660 242.599,73.568 C246.733,69.979 251.413,64.987 257.263,57.967 ZM75.393,50.869 C75.393,49.777 74.769,49.153 73.443,49.153 C68.451,49.153 59.246,58.357 54.566,66.781 C65.642,66.235 75.393,55.237 75.393,50.869 ZM225.127,50.869 C225.127,49.777 224.503,49.153 223.177,49.153 C218.185,49.153 208.981,58.357 204.301,66.781 C215.377,66.235 225.127,55.237 225.127,50.869 ZM217.505,74.079 C219.370,72.724 221.356,71.088 223.443,69.149 C220.777,69.378 218.365,71.647 217.505,74.079 ZM238.699,54.301 C238.699,54.301 233.784,60.463 229.104,65.689 C230.274,65.923 231.054,66.547 231.054,67.483 C231.054,68.497 230.040,69.823 228.246,70.759 C227.335,69.962 226.257,69.459 225.134,69.244 C222.369,71.914 219.701,74.114 217.171,75.886 C217.171,75.893 217.170,75.900 217.170,75.908 C217.170,78.170 218.886,80.120 223.410,80.120 C235.501,80.120 238.465,58.591 238.699,54.301 ZM25.426,44.238 C25.426,49.777 28.546,52.663 31.432,52.663 C33.928,52.663 36.269,50.479 36.269,45.954 C36.269,45.642 36.269,45.252 36.191,44.862 C38.375,44.940 39.311,45.876 39.311,47.203 C39.311,51.025 35.411,53.911 31.510,53.911 C27.688,53.911 23.866,51.103 23.866,43.926 C23.866,14.987 75.816,12.335 78.858,0.011 C82.290,1.181 83.928,3.443 83.928,5.861 C83.928,8.435 81.978,11.165 78.390,12.569 C61.932,18.809 25.426,23.178 25.426,44.238 ZM39.701,42.054 C39.545,42.054 39.467,41.976 39.467,41.820 C39.467,41.430 40.325,40.494 41.339,40.494 C43.601,40.494 45.785,40.416 47.891,40.338 C50.699,34.410 53.195,28.638 55.457,23.568 C55.925,22.476 56.315,21.852 57.719,21.852 C58.499,21.852 63.492,21.930 63.960,21.930 C64.350,21.930 64.506,22.086 64.506,22.398 C64.506,22.632 64.428,22.866 64.272,23.178 C61.464,28.170 58.421,33.942 55.301,40.026 C58.967,39.792 61.620,39.636 61.620,39.636 C62.010,39.636 62.166,39.792 62.166,39.948 C62.166,40.416 60.995,41.352 60.683,41.352 C60.683,41.352 54.443,41.586 54.443,41.586 C42.275,64.831 27.064,91.430 5.925,91.430 C1.557,91.430 -0.003,89.948 -0.003,88.856 C-0.003,88.232 0.543,87.764 1.245,87.764 C1.479,87.764 1.713,87.842 1.869,87.998 C3.117,89.402 4.911,90.182 6.705,90.182 C21.916,90.182 36.347,64.753 47.189,41.820 C46.799,41.820 39.701,42.054 39.701,42.054 Z" id="path-1" class="cls-2" fill-rule="evenodd"/>
</svg>
