<svg xmlns="http://www.w3.org/2000/svg" xmlns:xlink="http://www.w3.org/1999/xlink" preserveAspectRatio="xMidYMid" width="304" height="74" viewBox="0 0 304 74">
  <defs>
    <style>

      .cls-2 {
        fill: #ffffff;
      }
    </style>
  </defs>
  <path d="M277.396,71.213 C278.020,71.213 278.800,70.901 279.190,70.745 C283.324,68.795 291.046,62.477 302.435,48.904 C302.435,48.904 303.215,49.684 303.215,49.684 C291.670,64.037 280.594,73.163 275.446,73.163 C273.496,73.163 272.404,71.837 272.404,69.107 C272.404,61.931 284.260,48.280 287.692,44.302 C287.692,44.302 287.614,43.912 287.224,43.912 C284.182,43.912 270.532,51.557 261.951,71.135 C261.795,71.447 261.561,71.603 261.015,71.603 C261.015,71.603 255.633,71.603 255.633,71.603 C255.555,71.603 255.321,71.603 255.321,71.369 C255.321,71.213 255.399,70.979 255.789,70.511 C260.703,63.569 271.156,47.422 271.234,45.082 C271.234,45.082 271.156,44.692 270.766,44.692 C267.880,44.692 256.959,54.209 249.705,66.845 C247.911,69.965 247.287,71.135 247.287,71.135 C247.131,71.447 246.897,71.603 246.351,71.603 C246.351,71.603 239.564,71.603 239.564,71.603 C239.486,71.603 239.252,71.603 239.252,71.369 C239.252,71.213 239.330,70.979 239.720,70.511 C242.973,66.693 248.219,59.713 252.792,53.065 C248.985,56.969 244.764,58.499 241.306,58.499 C240.526,58.499 239.824,58.421 239.122,58.265 C233.194,65.909 224.613,72.773 217.437,72.773 C213.303,72.773 211.509,70.511 211.509,67.235 C211.509,64.171 213.028,60.174 215.556,56.133 C212.882,57.795 210.192,58.499 207.852,58.499 C207.072,58.499 206.370,58.421 205.668,58.265 C199.740,65.909 191.160,72.773 183.983,72.773 C179.849,72.773 178.055,70.511 178.055,67.235 C178.055,65.214 178.723,62.786 179.898,60.209 C171.995,68.345 165.127,73.163 161.387,73.163 C159.437,73.163 158.345,71.837 158.345,69.107 C158.345,63.101 169.577,49.918 169.577,47.968 C169.577,46.642 168.641,43.990 167.705,43.990 C167.549,43.990 167.393,44.068 167.159,44.302 C165.521,46.174 163.961,48.124 162.323,50.074 C162.323,50.074 161.465,49.372 161.465,49.372 C161.465,49.372 166.925,42.898 166.925,42.898 C170.124,39.544 171.216,35.176 171.684,33.850 C171.840,33.460 171.840,32.758 172.308,32.758 C172.464,32.758 174.726,33.070 174.726,33.538 C174.726,34.318 172.932,36.580 172.932,40.012 C172.932,42.976 175.974,45.082 175.974,48.202 C175.974,50.308 174.804,52.103 172.776,54.365 C170.358,57.017 161.465,65.441 161.465,70.277 C161.465,70.979 161.855,71.447 162.713,71.447 C165.222,71.447 171.700,67.421 182.240,55.920 C187.786,47.173 198.012,38.296 207.774,38.296 C211.362,38.296 212.844,40.168 212.844,42.976 C212.844,46.642 210.348,51.869 206.682,56.939 C207.150,57.017 207.618,57.017 208.164,57.017 C211.011,57.017 214.765,55.712 218.126,52.463 C223.936,44.981 232.757,38.296 241.228,38.296 C244.816,38.296 246.298,40.168 246.298,42.976 C246.298,46.642 243.802,51.869 240.136,56.939 C240.604,57.017 241.072,57.017 241.618,57.017 C244.738,57.017 248.950,55.457 252.538,51.479 C253.942,49.996 255.580,48.124 256.360,47.188 C256.360,47.188 256.535,47.450 256.535,47.450 C257.978,45.203 259.229,43.135 260.157,41.416 C260.547,40.636 260.625,40.168 261.483,40.168 C261.483,40.168 266.865,40.168 266.865,40.168 C267.646,40.168 268.036,40.324 268.036,40.636 C268.036,40.792 267.880,41.104 267.646,41.338 C265.227,43.678 261.015,48.826 257.739,53.663 C263.589,47.266 270.844,40.168 276.772,40.168 C277.786,40.168 278.254,40.636 278.254,41.416 C278.254,44.068 273.106,50.308 272.092,52.337 C277.552,46.252 288.082,39.154 295.181,39.154 C296.897,39.154 297.443,39.466 297.443,40.012 C297.443,40.636 296.585,41.650 295.727,42.664 C290.422,48.904 276.382,65.753 276.382,70.199 C276.382,70.979 276.850,71.213 277.396,71.213 ZM208.320,42.430 C208.320,40.948 207.774,40.012 206.526,40.012 C199.038,40.012 182.969,63.101 182.969,69.575 C182.969,70.667 183.437,71.213 184.373,71.213 C190.770,71.213 197.712,64.193 202.470,56.783 C201.534,55.925 201.066,54.911 201.066,53.741 C201.066,51.557 202.860,48.826 207.540,46.330 C208.008,44.848 208.320,43.522 208.320,42.430 ZM206.760,48.670 C204.186,50.464 203.172,52.259 203.172,53.663 C203.172,54.209 203.250,54.677 203.484,55.067 C204.810,52.805 205.902,50.620 206.760,48.670 ZM241.774,42.430 C241.774,40.948 241.228,40.012 239.980,40.012 C232.491,40.012 216.423,63.101 216.423,69.575 C216.423,70.667 216.891,71.213 217.827,71.213 C224.223,71.213 231.165,64.193 235.924,56.783 C234.988,55.925 234.520,54.911 234.520,53.741 C234.520,51.557 236.314,48.826 240.994,46.330 C241.462,44.848 241.774,43.522 241.774,42.430 ZM240.214,48.670 C237.640,50.464 236.626,52.259 236.626,53.663 C236.626,54.209 236.704,54.677 236.938,55.067 C238.264,52.805 239.356,50.620 240.214,48.670 ZM129.564,72.617 C126.834,72.617 125.898,70.511 125.898,67.937 C125.898,66.299 126.288,64.583 127.146,62.711 C123.636,66.689 116.382,72.929 112.794,72.929 C111.545,72.929 110.687,72.149 110.687,70.355 C110.687,66.942 114.103,60.523 117.822,54.333 C114.389,57.301 110.740,58.499 107.686,58.499 C106.906,58.499 106.204,58.421 105.502,58.265 C99.574,65.909 90.994,72.773 83.817,72.773 C79.683,72.773 77.889,70.511 77.889,67.235 C77.889,65.191 78.572,62.730 79.771,60.120 C71.833,68.309 64.928,73.163 61.175,73.163 C59.225,73.163 58.133,71.837 58.133,69.107 C58.133,61.151 70.068,47.968 74.592,44.458 C74.592,44.302 74.514,44.224 74.280,44.224 C69.522,44.224 53.297,57.641 47.291,66.845 C45.341,69.809 44.873,71.135 44.873,71.135 C44.717,71.447 44.483,71.603 43.937,71.603 C43.937,71.603 37.150,71.603 37.150,71.603 C37.072,71.603 36.838,71.603 36.838,71.369 C36.838,71.213 36.916,70.979 37.306,70.511 C51.893,52.961 73.500,16.533 74.826,13.881 C75.216,13.101 75.294,12.945 76.152,12.867 C76.776,12.789 80.832,12.633 82.548,12.633 C83.406,12.633 83.796,12.711 83.796,13.023 C83.796,13.179 83.640,13.413 83.328,13.803 C75.840,22.929 56.417,51.323 53.453,56.549 C59.459,51.167 71.784,39.934 80.130,39.934 C81.846,39.934 82.470,40.246 82.470,40.714 C82.470,41.260 81.612,42.196 80.598,43.444 C75.450,49.840 62.345,66.299 62.345,70.355 C62.345,70.901 62.579,71.291 63.203,71.291 C63.515,71.291 63.983,71.135 64.919,70.745 C68.284,69.158 74.026,64.677 82.186,55.747 C87.756,47.057 97.910,38.296 107.608,38.296 C111.196,38.296 112.678,40.168 112.678,42.976 C112.678,46.642 110.182,51.869 106.516,56.939 C106.984,57.017 107.452,57.017 107.998,57.017 C111.118,57.017 115.331,55.457 118.919,51.479 C119.582,50.778 120.296,49.992 120.949,49.257 C123.029,45.943 124.924,42.998 126.054,41.026 C126.288,40.480 126.600,40.168 127.224,40.168 C127.224,40.168 132.528,40.168 132.528,40.168 C133.464,40.168 133.854,40.480 133.854,40.948 C133.854,41.182 133.698,41.572 133.464,41.806 C127.692,48.280 113.808,66.377 113.808,70.823 C113.808,71.291 114.042,71.447 114.432,71.447 C116.304,71.447 123.558,65.753 129.018,59.045 C131.826,54.287 136.194,48.670 141.187,41.494 C141.577,41.026 141.889,40.168 142.825,40.168 C142.825,40.168 148.207,40.168 148.207,40.168 C148.987,40.168 149.533,40.558 149.533,41.026 C149.533,41.260 149.377,41.572 149.143,41.806 C141.265,48.826 129.252,63.491 129.252,70.043 C129.252,70.979 129.798,71.291 130.500,71.291 C136.740,71.291 154.369,49.762 154.369,43.210 C154.369,42.508 154.213,41.962 153.745,41.650 C155.851,39.466 158.893,37.828 160.765,37.828 C161.857,37.828 162.559,38.296 162.559,39.466 C162.559,40.012 162.403,40.792 162.013,41.650 C158.113,50.854 139.003,72.617 129.564,72.617 ZM108.154,42.430 C108.154,40.948 107.608,40.012 106.360,40.012 C98.872,40.012 82.803,63.101 82.803,69.575 C82.803,70.667 83.271,71.213 84.207,71.213 C90.604,71.213 97.546,64.193 102.304,56.783 C101.368,55.925 100.900,54.911 100.900,53.741 C100.900,51.557 102.694,48.826 107.374,46.330 C107.842,44.848 108.154,43.522 108.154,42.430 ZM106.594,48.670 C104.020,50.464 103.006,52.259 103.006,53.663 C103.006,54.209 103.084,54.677 103.318,55.067 C104.644,52.805 105.736,50.620 106.594,48.670 ZM56.715,13.491 C52.425,13.491 47.121,12.945 42.519,12.945 C36.513,12.945 31.677,13.881 31.677,18.405 C31.677,30.418 44.781,41.260 44.781,51.010 C44.781,65.909 31.286,73.631 19.118,73.631 C9.134,73.631 0.007,68.405 0.007,57.719 C0.007,50.308 5.702,42.976 15.686,42.976 C20.990,42.976 27.074,45.628 27.074,51.323 C27.074,55.769 23.720,58.889 20.912,58.889 C19.430,58.889 18.104,58.031 17.480,56.003 C18.182,56.159 18.806,56.315 19.430,56.315 C22.706,56.315 25.124,53.897 25.124,51.010 C25.124,46.564 20.210,44.692 16.700,44.692 C9.212,44.692 4.844,50.698 4.844,57.095 C4.844,66.299 12.878,71.135 20.990,71.135 C29.102,71.135 37.293,66.221 37.293,55.847 C37.293,41.728 28.556,34.006 28.556,21.603 C28.556,4.443 55.779,11.307 65.920,0.387 C66.154,0.153 66.388,-0.003 66.544,-0.003 C66.700,-0.003 66.778,0.153 66.856,0.465 C65.374,5.457 62.878,13.491 56.715,13.491 Z" id="path-1" class="cls-2" fill-rule="evenodd"/>
</svg>
