<svg xmlns="http://www.w3.org/2000/svg" xmlns:xlink="http://www.w3.org/1999/xlink" preserveAspectRatio="xMidYMid" width="232" height="105" viewBox="0 0 232 105">
  <defs>
    <style>

      .cls-2 {
        fill: #ffffff;
      }
    </style>
  </defs>
  <path d="M230.567,48.904 C230.567,48.904 231.347,49.684 231.347,49.684 C221.207,61.853 212.081,72.227 199.054,72.227 C194.296,72.227 191.488,70.745 190.162,69.029 C186.958,74.032 183.557,79.664 180.821,84.282 C181.077,84.299 181.333,84.318 181.591,84.318 C185.257,84.318 189.079,82.680 191.809,79.248 C191.887,78.936 192.355,78.780 192.823,78.780 C193.213,78.780 193.681,79.014 193.681,79.326 C193.681,79.404 193.603,79.482 193.525,79.638 C190.249,84.396 184.867,86.736 179.563,86.736 C179.501,86.736 179.439,86.729 179.377,86.728 C176.962,90.838 175.341,93.678 175.341,93.678 C175.029,94.146 174.639,95.082 173.937,95.082 C173.937,95.082 167.073,95.082 167.073,95.082 C166.527,95.082 166.137,94.848 166.137,94.536 C166.137,94.302 166.371,94.146 166.683,93.756 C168.673,91.352 170.807,88.547 173.038,85.464 C168.109,83.445 164.352,79.053 164.352,72.539 C164.352,68.405 165.132,64.505 167.004,59.903 C162.948,64.427 154.836,72.461 147.504,72.461 C144.618,72.461 143.370,70.745 143.370,67.781 C143.370,55.223 165.600,20.901 173.479,7.329 C174.181,5.925 174.337,5.769 175.741,5.613 C175.741,5.613 182.449,5.613 182.449,5.613 C182.839,5.613 182.995,5.925 182.995,6.237 C182.995,6.471 182.917,6.705 182.761,7.017 C177.691,14.661 148.128,60.215 148.128,69.107 C148.128,69.965 148.596,70.433 149.532,70.433 C153.354,70.433 164.040,62.945 170.827,51.791 C175.819,42.118 184.087,28.702 196.568,6.315 C196.958,5.535 197.114,5.301 197.894,5.301 C197.894,5.301 205.304,5.301 205.304,5.301 C206.162,5.301 206.474,5.769 206.474,6.159 C206.474,6.393 206.396,6.627 206.240,6.861 C201.482,13.179 170.359,55.067 170.359,71.369 C170.359,76.653 172.368,80.301 175.260,82.349 C183.897,70.082 193.759,54.333 202.642,41.182 C202.642,41.182 203.344,40.168 203.890,40.168 C203.890,40.168 209.272,40.168 209.272,40.168 C210.052,40.168 210.442,40.324 210.442,40.636 C210.442,40.792 210.286,41.104 210.052,41.338 C208.648,42.664 205.528,46.174 202.798,50.152 C208.492,44.068 215.123,38.452 219.881,38.452 C222.845,38.452 224.093,39.934 224.093,42.274 C224.093,50.542 208.336,69.497 196.168,70.901 C197.104,71.057 198.118,71.213 199.288,71.213 C210.988,71.213 219.725,61.697 230.567,48.904 ZM217.775,43.288 C217.775,42.118 217.229,41.338 216.137,41.338 C211.847,41.338 200.224,53.975 196.246,59.669 C195.700,60.449 191.176,67.313 191.176,67.313 C191.488,68.483 192.268,69.575 193.750,69.575 C203.812,69.575 217.775,49.606 217.775,43.288 ZM111.157,73.163 C109.207,73.163 108.115,71.837 108.115,69.107 C108.115,61.151 120.050,47.968 124.574,44.458 C124.574,44.302 124.496,44.224 124.262,44.224 C119.504,44.224 103.279,57.641 97.273,66.845 C95.323,69.809 94.855,71.135 94.855,71.135 C94.699,71.447 94.465,71.603 93.919,71.603 C93.919,71.603 87.132,71.603 87.132,71.603 C87.054,71.603 86.820,71.603 86.820,71.369 C86.820,71.213 86.898,70.979 87.288,70.511 C92.671,64.193 103.513,49.216 107.725,41.416 C108.115,40.636 108.193,40.168 109.051,40.168 C109.051,40.168 114.433,40.168 114.433,40.168 C115.213,40.168 115.603,40.324 115.603,40.636 C115.603,40.792 115.447,41.104 115.213,41.338 C112.951,43.522 107.101,50.542 103.669,56.237 C110.065,50.620 122.624,39.934 130.112,39.934 C131.828,39.934 132.374,40.246 132.374,40.714 C132.374,41.338 131.516,42.274 130.580,43.444 C125.588,49.918 112.015,65.909 112.015,70.199 C112.015,70.901 112.405,71.291 113.185,71.291 C113.497,71.291 113.965,71.135 114.901,70.745 C119.036,68.795 126.758,62.477 138.146,48.904 C138.146,48.904 138.926,49.684 138.926,49.684 C127.382,64.037 116.305,73.163 111.157,73.163 ZM72.681,82.524 C75.255,82.212 77.907,82.056 80.715,82.056 C82.665,82.056 84.693,82.212 86.721,82.368 C87.033,82.368 87.111,82.524 87.111,82.758 C87.111,83.070 86.643,84.708 85.941,84.708 C83.523,84.318 81.105,84.162 78.765,84.162 C76.035,84.162 73.461,84.396 70.887,84.786 C61.292,96.252 51.776,104.677 42.728,104.677 C40.153,104.677 38.905,103.662 38.905,102.102 C38.905,97.266 50.138,87.126 67.376,83.460 C75.255,72.773 79.779,66.455 84.147,59.903 C79.545,64.817 71.199,72.227 66.518,72.227 C63.086,72.227 61.526,70.277 61.526,67.235 C61.526,65.610 61.987,63.674 62.836,61.580 C55.506,68.884 49.202,73.163 45.677,73.163 C43.727,73.163 42.635,71.837 42.635,69.107 C42.635,62.789 54.180,47.422 57.846,41.026 C58.080,40.480 58.392,40.168 59.016,40.168 C59.016,40.168 64.320,40.168 64.320,40.168 C65.256,40.168 65.646,40.480 65.646,40.948 C65.646,41.182 65.490,41.572 65.256,41.806 C59.484,48.280 45.755,66.377 45.755,70.277 C45.755,70.979 46.145,71.447 47.003,71.447 C49.354,71.447 55.190,67.909 64.581,58.009 C70.279,47.995 83.360,36.346 98.734,36.346 C99.436,36.346 99.748,36.580 99.748,36.892 C99.748,37.360 99.124,37.906 98.734,37.906 C85.005,37.906 67.454,62.087 67.454,68.405 C67.454,69.341 67.844,69.887 68.703,69.887 C72.369,69.887 83.133,60.059 87.813,54.209 C90.309,50.386 92.961,46.018 96.472,40.480 C96.472,40.480 96.784,40.168 97.330,40.168 C97.330,40.168 102.634,40.168 102.634,40.168 C103.570,40.168 103.960,40.480 103.960,40.948 C103.960,41.182 103.804,41.572 103.570,41.806 C93.507,53.975 83.055,69.809 72.681,82.524 ZM40.621,101.634 C40.621,102.726 41.558,103.350 43.586,103.350 C49.514,103.350 57.938,95.160 65.426,85.956 C51.308,89.622 40.621,98.046 40.621,101.634 ZM66.270,34.084 C64.554,34.084 63.852,33.148 63.852,31.822 C63.852,28.000 69.312,20.823 72.666,20.823 C73.368,20.823 75.084,21.213 75.084,23.475 C75.084,27.220 70.014,34.084 66.270,34.084 ZM56.709,13.491 C52.419,13.491 47.115,12.945 42.512,12.945 C36.506,12.945 31.670,13.881 31.670,18.405 C31.670,30.418 44.774,41.260 44.774,51.010 C44.774,65.909 31.280,73.631 19.111,73.631 C9.127,73.631 0.001,68.405 0.001,57.719 C0.001,50.308 5.695,42.976 15.679,42.976 C20.984,42.976 27.068,45.628 27.068,51.323 C27.068,55.769 23.714,58.889 20.906,58.889 C19.423,58.889 18.097,58.031 17.473,56.003 C18.175,56.159 18.799,56.315 19.423,56.315 C22.700,56.315 25.118,53.897 25.118,51.010 C25.118,46.564 20.203,44.692 16.693,44.692 C9.205,44.692 4.837,50.698 4.837,57.095 C4.837,66.299 12.871,71.135 20.984,71.135 C29.096,71.135 37.286,66.221 37.286,55.847 C37.286,41.728 28.550,34.006 28.550,21.603 C28.550,4.443 55.773,11.307 65.913,0.387 C66.147,0.153 66.381,-0.003 66.537,-0.003 C66.693,-0.003 66.771,0.153 66.849,0.465 C65.367,5.457 62.871,13.491 56.709,13.491 Z" id="path-1" class="cls-2" fill-rule="evenodd"/>
</svg>
