<svg xmlns="http://www.w3.org/2000/svg" xmlns:xlink="http://www.w3.org/1999/xlink" preserveAspectRatio="xMidYMid" width="534" height="184" viewBox="0 0 534 184">
  <defs>
    <style>

      .cls-2 {
        fill: #ffffff;
      }
    </style>
  </defs>
  <path d="M488.428,125.562 C493.520,125.562 508.127,115.914 532.515,86.835 C532.515,86.835 533.855,88.175 533.855,88.175 C514.023,112.832 494.994,128.510 486.150,128.510 C484.006,128.510 481.326,126.768 481.326,121.542 C481.326,118.192 483.202,113.368 485.882,108.008 C481.326,114.306 464.710,128.108 457.608,128.108 C455.464,128.108 453.990,126.768 453.990,123.686 C453.990,118.364 458.825,108.788 464.494,99.115 C459.829,102.067 455.127,103.318 451.044,103.318 C449.704,103.318 448.498,103.184 447.292,102.916 C437.107,116.048 422.367,127.840 410.039,127.840 C402.937,127.840 399.855,123.954 399.855,118.326 C399.855,101.576 426.253,68.611 450.910,68.611 C457.074,68.611 459.620,71.827 459.620,76.651 C459.620,82.949 455.332,91.927 449.034,100.638 C449.838,100.772 450.642,100.772 451.580,100.772 C456.150,100.772 462.083,98.812 467.554,94.001 C472.591,85.739 477.724,77.949 480.388,73.301 C480.790,72.363 481.326,71.827 482.398,71.827 C482.398,71.827 491.510,71.827 491.510,71.827 C493.118,71.827 493.788,72.363 493.788,73.167 C493.788,73.569 493.520,74.239 493.118,74.641 C483.202,85.763 459.350,116.852 459.350,124.490 C459.350,125.294 459.752,125.562 460.422,125.562 C464.040,125.562 481.326,112.698 490.974,99.163 C496.871,89.247 504.107,79.197 507.457,73.301 C507.859,72.363 508.395,71.827 509.467,71.827 C509.467,71.827 518.579,71.827 518.579,71.827 C520.187,71.827 520.857,72.363 520.857,73.167 C520.857,73.569 520.589,74.239 520.187,74.641 C510.271,85.763 486.284,115.646 486.284,123.552 C486.284,124.758 486.954,125.562 488.428,125.562 ZM451.848,75.713 C451.848,73.167 450.910,71.559 448.766,71.559 C435.901,71.559 408.297,111.224 408.297,122.346 C408.297,124.222 409.101,125.160 410.709,125.160 C421.697,125.160 433.623,113.100 441.798,100.370 C440.190,98.895 439.385,97.153 439.385,95.143 C439.385,91.391 442.468,86.701 450.508,82.413 C451.312,79.867 451.848,77.589 451.848,75.713 ZM449.168,86.433 C444.746,89.515 443.004,92.597 443.004,95.009 C443.004,95.947 443.138,96.751 443.540,97.421 C445.818,93.535 447.694,89.783 449.168,86.433 ZM382.972,117.388 C358.985,156.249 342.637,183.183 312.888,183.183 C304.044,183.183 297.612,178.761 297.612,166.969 C297.612,165.629 298.416,165.093 299.220,165.093 C300.292,165.093 301.632,166.031 301.632,166.835 C301.632,176.081 305.920,179.565 311.950,179.565 C341.967,179.565 364.345,130.386 379.354,109.616 C371.716,118.594 360.191,128.912 352.687,128.912 C346.523,128.912 344.111,125.294 344.111,119.264 C344.111,100.504 381.766,33.502 392.084,15.412 C393.290,13.000 393.558,12.464 395.970,12.464 C395.970,12.464 407.494,12.464 407.494,12.464 C408.164,12.464 408.432,13.000 408.432,13.536 C408.432,13.938 408.298,14.340 408.030,14.876 C395.166,38.326 350.945,104.390 350.945,121.542 C350.945,124.624 352.151,125.964 354.161,125.964 C361.665,125.964 378.416,107.472 382.436,101.710 C400.392,76.517 422.503,30.688 432.821,13.670 C433.491,12.330 433.625,12.062 435.099,11.928 C435.099,11.928 447.829,11.928 447.829,11.928 C449.303,11.928 449.839,12.732 449.839,13.402 C449.839,13.804 449.705,14.206 449.437,14.608 C434.697,34.306 404.010,83.485 382.972,117.388 ZM289.308,127.706 C283.948,127.706 280.062,124.490 280.062,118.058 C280.062,112.966 283.144,100.772 283.144,100.772 C283.144,100.772 283.412,99.699 284.618,99.297 C302.574,93.267 311.686,79.331 311.686,74.239 C311.686,73.033 311.150,72.363 310.078,72.363 C306.460,72.363 296.410,79.599 286.494,88.979 C282.608,95.009 268.806,115.244 263.714,125.026 C263.445,125.562 263.043,125.830 262.105,125.830 C262.105,125.830 250.447,125.830 250.447,125.830 C250.313,125.830 249.911,125.830 249.911,125.428 C249.911,125.160 250.045,124.758 250.715,123.954 C253.789,120.256 257.051,116.069 260.411,111.565 C249.124,122.303 239.530,128.510 233.967,128.510 C230.617,128.510 228.741,126.232 228.741,121.542 C228.741,107.874 249.244,85.227 257.016,79.197 C257.016,78.929 256.882,78.795 256.480,78.795 C248.306,78.795 220.433,101.844 210.115,117.656 C206.765,122.748 205.961,125.026 205.961,125.026 C205.693,125.562 205.291,125.830 204.353,125.830 C204.353,125.830 192.695,125.830 192.695,125.830 C192.561,125.830 192.159,125.830 192.159,125.428 C192.159,125.160 192.293,124.758 192.963,123.954 C195.679,120.765 199.207,116.288 203.017,111.221 C191.575,122.168 181.836,128.510 176.215,128.510 C172.865,128.510 170.989,126.232 170.989,121.542 C170.989,118.460 171.927,115.110 173.535,111.492 C168.309,117.120 158.794,127.438 150.754,127.438 C144.590,127.438 141.776,123.686 141.776,118.192 C141.776,115.038 142.676,111.273 144.355,107.225 C131.179,120.613 119.778,128.510 113.504,128.510 C110.154,128.510 108.278,126.232 108.278,121.542 C108.278,107.874 128.780,85.227 136.552,79.197 C136.552,78.929 136.418,78.795 136.016,78.795 C127.842,78.795 99.970,101.844 89.652,117.656 C86.301,122.748 85.497,125.026 85.497,125.026 C85.229,125.562 84.827,125.830 83.889,125.830 C83.889,125.830 72.231,125.830 72.231,125.830 C72.097,125.830 71.695,125.830 71.695,125.428 C71.695,125.160 71.829,124.758 72.499,123.954 C97.558,93.803 134.676,31.224 136.954,26.668 C137.624,25.328 137.758,25.060 139.232,24.926 C140.305,24.792 147.273,24.524 150.221,24.524 C151.695,24.524 152.365,24.658 152.365,25.194 C152.365,25.462 152.097,25.864 151.561,26.534 C138.696,42.212 105.330,90.989 100.238,99.967 C110.556,90.721 131.728,71.425 146.067,71.425 C149.015,71.425 150.087,71.961 150.087,72.765 C150.087,73.703 148.613,75.311 146.871,77.455 C138.026,88.443 115.514,116.718 115.514,123.686 C115.514,124.624 115.916,125.294 116.988,125.294 C117.524,125.294 118.328,125.026 119.936,124.356 C125.429,121.765 134.612,114.680 147.540,100.818 C157.270,83.944 178.400,65.261 203.819,65.261 C205.025,65.261 205.561,65.663 205.561,66.199 C205.561,67.003 204.489,67.941 203.819,67.941 C177.019,67.941 149.146,114.976 149.146,122.212 C149.146,123.820 149.682,124.624 150.888,124.624 C159.732,124.624 174.071,107.204 181.441,98.091 C186.935,90.051 193.903,81.341 199.933,72.363 C199.933,72.363 200.469,71.827 201.407,71.827 C201.407,71.827 210.519,71.827 210.519,71.827 C212.127,71.827 212.797,72.363 212.797,73.167 C212.797,73.569 212.529,74.239 212.127,74.641 C198.459,88.309 176.349,113.502 176.349,123.552 C176.349,124.758 177.019,125.562 178.493,125.562 C182.789,125.562 193.858,118.694 211.860,99.083 C218.364,89.881 224.559,80.474 228.071,73.971 C228.741,72.631 228.875,71.827 230.349,71.827 C230.349,71.827 239.596,71.827 239.596,71.827 C240.936,71.827 241.606,72.095 241.606,72.631 C241.606,72.899 241.338,73.435 240.936,73.837 C237.050,77.589 226.999,89.649 221.103,99.431 C232.091,89.783 253.666,71.425 266.530,71.425 C269.478,71.425 270.416,71.961 270.416,72.765 C270.416,73.837 268.942,75.445 267.334,77.455 C258.758,88.577 235.442,116.048 235.442,123.418 C235.442,124.624 236.112,125.294 237.452,125.294 C237.988,125.294 238.792,125.026 240.400,124.356 C246.008,121.711 255.464,114.379 268.825,99.934 C290.750,68.800 313.713,30.311 315.171,26.668 C315.975,25.328 315.975,25.060 317.449,24.926 C318.521,24.792 325.489,24.524 328.437,24.524 C329.911,24.524 330.581,24.658 330.581,25.194 C330.581,25.462 330.313,25.864 329.777,26.534 C321.469,36.718 302.306,62.983 291.184,81.475 C303.646,71.023 313.428,66.065 319.861,66.065 C323.479,66.065 325.221,67.673 325.221,70.219 C325.221,77.455 312.356,91.927 295.338,98.359 C292.926,102.246 288.906,110.018 288.906,118.594 C288.906,122.212 289.844,125.026 292.658,125.026 C293.462,125.026 294.400,124.892 295.472,124.356 C302.574,121.006 315.841,110.152 335.405,86.835 C335.405,86.835 336.745,88.175 336.745,88.175 C323.345,104.792 310.346,117.388 300.564,123.820 C296.678,126.366 292.658,127.706 289.308,127.706 ZM131.192,19.432 C116.988,19.432 28.948,20.906 28.948,64.457 C28.948,76.785 37.926,84.423 45.297,84.423 C50.657,84.423 55.213,80.403 55.213,71.559 C55.213,71.023 55.213,70.353 55.079,69.683 C58.831,69.951 60.305,72.095 60.305,74.641 C60.305,82.011 53.605,86.165 46.235,86.165 C36.854,86.165 26.268,79.465 26.268,63.921 C26.268,10.856 121.142,14.474 136.418,0.001 C139.232,2.012 140.707,5.496 140.707,8.980 C140.707,14.206 137.490,19.432 131.192,19.432 ZM99.166,24.792 C100.506,24.792 109.082,24.926 109.886,24.926 C110.556,24.926 110.824,25.194 110.824,25.730 C110.824,26.132 110.690,26.534 110.422,27.070 C86.703,68.611 56.955,144.322 10.188,144.322 C2.550,144.322 0.004,141.776 0.004,139.900 C0.004,138.828 0.808,138.024 2.148,138.024 C2.550,138.024 2.952,138.158 3.220,138.426 C5.364,140.838 8.446,142.178 11.528,142.178 C45.029,142.178 76.519,70.219 95.280,27.740 C96.084,25.864 96.754,25.060 99.166,24.792 Z" id="path-1" class="cls-2" fill-rule="evenodd"/>
</svg>
