<?xml version="1.0" encoding="utf-8"?>
<!-- Generator: Adobe Illustrator 16.0.0, SVG Export Plug-In . SVG Version: 6.00 Build 0)  -->
<!DOCTYPE svg PUBLIC "-//W3C//DTD SVG 1.0//EN" "http://www.w3.org/TR/2001/REC-SVG-20010904/DTD/svg10.dtd">
<svg version="1.0" id="Layer_1" xmlns="http://www.w3.org/2000/svg" xmlns:xlink="http://www.w3.org/1999/xlink" x="0px" y="0px"
	 width="26px" height="13px" viewBox="0 0 26 13" enable-background="new 0 0 26 13" xml:space="preserve">
<path id="path-1" fill="#FFFFFF" d="M25.027,8.898h-9.991v-4.24h-0.962v-1.26l5.887-3.399l5.958,3.328v1.331h-0.892V8.898z
	 M23.814,3.502L19.996,1.33l-3.782,2.172v4.275h7.601V3.502z M21.994,5.149h-3.96V4.063h3.96V5.149z M21.994,6.761h-3.96V5.675h3.96
	V6.761z M10.522,12.58c-0.617,0-0.779-0.223-0.941-0.637L8.397,8.807H3.518L3.129,6.355C2.837,4.54,2.805,4.302,2.805,4.095
	c0-0.669,0.502-1.115,1.069-1.115c0.957,0,1.087,0.796,1.2,1.64l0.049,0.35h2.594c0,0.987-0.568,1.083-1.427,1.083
	c-0.373,0-0.698-0.016-1.005-0.048l0.21,1.338h3.6l1.735,4.601c0.064,0.191,0.097,0.351,0.097,0.43
	C10.927,12.518,10.846,12.58,10.522,12.58z M4.313,2.597c-0.633,0-1.136-0.493-1.136-1.113c0-0.621,0.503-1.115,1.136-1.115
	c0.631,0,1.134,0.494,1.134,1.115C5.447,2.104,4.944,2.597,4.313,2.597z M4.086,12.214c1.637,0,2.998-1.194,3.241-2.737h0.811
	c-0.227,1.988-1.961,3.533-4.052,3.533C1.832,13.01,0,11.211,0,8.998C0,7.422,0.941,6.053,2.301,5.4l0.114,0.844
	C1.459,6.801,0.81,7.82,0.81,8.998C0.81,10.781,2.269,12.214,4.086,12.214z M15.032,10.336v0.244h-0.583V9.375h0.583v0.234H14.71
	v0.244h0.322v0.234H14.71v0.248H15.032z M14.876,10.803c0.196,0,0.358,0.075,0.487,0.223c0.125,0.143,0.191,0.336,0.191,0.558
	s-0.066,0.411-0.191,0.556c-0.127,0.146-0.293,0.223-0.487,0.223c-0.192,0-0.36-0.076-0.485-0.223
	c-0.125-0.145-0.191-0.334-0.191-0.556s0.066-0.415,0.189-0.558C14.516,10.878,14.684,10.803,14.876,10.803z M14.876,12.025
	c0.203,0,0.347-0.18,0.347-0.442c0-0.265-0.144-0.444-0.347-0.444c-0.202,0-0.349,0.18-0.349,0.444
	C14.527,11.846,14.676,12.025,14.876,12.025z M15.279,10.427c-0.1-0.116-0.153-0.271-0.153-0.448c0-0.179,0.054-0.334,0.153-0.451
	c0.101-0.114,0.234-0.176,0.391-0.176c0.155,0,0.289,0.061,0.391,0.176c0.101,0.117,0.153,0.272,0.153,0.451
	c0,0.149-0.036,0.275-0.108,0.386l0.084,0.095l-0.152,0.191l-0.104-0.118c-0.082,0.049-0.168,0.071-0.264,0.071
	C15.516,10.604,15.38,10.542,15.279,10.427z M15.676,10.334c0.024,0,0.047-0.004,0.066-0.012l-0.039-0.047l0.152-0.186l0.059,0.066
	c0.023-0.057,0.035-0.117,0.035-0.178c0-0.211-0.118-0.356-0.281-0.356c-0.162,0-0.277,0.146-0.277,0.356
	S15.506,10.334,15.676,10.334z M16.584,11.333c0,0.33-0.158,0.51-0.464,0.51h-0.112v0.488h-0.326v-1.498h0.453
	C16.41,10.833,16.584,11.029,16.584,11.333z M16.008,11.125v0.414h0.049c0.127,0,0.197-0.077,0.197-0.21
	c0-0.14-0.066-0.204-0.204-0.204H16.008z M17.159,9.375v0.773c0,0.283-0.157,0.455-0.425,0.455c-0.267,0-0.424-0.172-0.424-0.455
	V9.375h0.264v0.667c0,0.199,0.042,0.296,0.16,0.296c0.121,0,0.162-0.097,0.162-0.296V9.375H17.159z M17.59,11.333
	c0,0.33-0.158,0.51-0.463,0.51h-0.111v0.488h-0.326v-1.498h0.453C17.417,10.833,17.59,11.029,17.59,11.333z M17.016,11.125v0.414
	h0.049c0.127,0,0.196-0.077,0.196-0.21c0-0.14-0.067-0.204-0.202-0.204H17.016z M17.912,10.404h-0.401l-0.042,0.176h-0.275
	l0.357-1.205h0.323l0.356,1.205h-0.275L17.912,10.404z M17.712,9.62l-0.142,0.557h0.283L17.712,9.62z M18.27,9.375h0.263v0.961
	h0.263v0.244H18.27V9.375z M18.311,10.803c0.195,0,0.358,0.075,0.485,0.223c0.126,0.143,0.192,0.336,0.192,0.558
	s-0.066,0.411-0.192,0.556c-0.125,0.146-0.291,0.223-0.485,0.223c-0.191,0-0.359-0.076-0.485-0.223
	c-0.125-0.145-0.192-0.334-0.192-0.556s0.067-0.415,0.19-0.558C17.951,10.878,18.117,10.803,18.311,10.803z M18.311,12.025
	c0.203,0,0.347-0.18,0.347-0.442c0-0.265-0.144-0.444-0.347-0.444c-0.201,0-0.349,0.18-0.349,0.444
	C17.962,11.846,18.109,12.025,18.311,12.025z M20.057,9.375v1.205h-0.262v-0.489h-0.333v0.489h-0.263V9.375h0.263v0.471h0.333V9.375
	H20.057z M20.064,11.312c0,0.232-0.109,0.386-0.287,0.405l0.341,0.613h-0.394l-0.283-0.638v0.638h-0.326v-1.498h0.476
	C19.893,10.833,20.064,11.029,20.064,11.312z M19.441,11.125v0.414h0.098c0.125,0,0.195-0.077,0.195-0.21
	c0-0.14-0.067-0.204-0.205-0.204H19.441z M20.082,10.833h0.912v0.304h-0.292v1.194h-0.326v-1.194h-0.294V10.833z M20.703,10.604
	c-0.154,0-0.289-0.062-0.391-0.179c-0.101-0.116-0.154-0.269-0.154-0.446c0-0.179,0.054-0.334,0.152-0.449
	c0.104-0.117,0.237-0.178,0.393-0.178c0.156,0,0.289,0.061,0.391,0.178c0.1,0.115,0.154,0.271,0.154,0.449
	c0,0.178-0.055,0.33-0.154,0.446C20.993,10.542,20.859,10.604,20.703,10.604z M20.703,9.622c-0.162,0-0.279,0.146-0.279,0.356
	s0.118,0.355,0.279,0.355c0.163,0,0.279-0.145,0.279-0.355S20.866,9.622,20.703,9.622z M21.374,11.663
	c0,0.247,0.053,0.366,0.201,0.366c0.149,0,0.2-0.119,0.2-0.366v-0.83h0.326v0.961c0,0.353-0.193,0.567-0.526,0.567
	c-0.331,0-0.529-0.215-0.529-0.567v-0.961h0.328V11.663z M22.193,9.375v0.773c0,0.283-0.157,0.455-0.426,0.455
	c-0.266,0-0.425-0.172-0.425-0.455V9.375h0.263v0.667c0,0.199,0.043,0.296,0.162,0.296c0.121,0,0.162-0.097,0.162-0.296V9.375
	H22.193z M22.743,9.854c0.083,0.035,0.161,0.062,0.228,0.144c0.047,0.058,0.069,0.131,0.069,0.22c0,0.231-0.147,0.389-0.386,0.389
	c-0.221,0-0.357-0.144-0.362-0.375h0.242c0.002,0.08,0.051,0.129,0.13,0.129c0.08,0,0.127-0.045,0.127-0.11
	c0-0.073-0.061-0.104-0.17-0.151c-0.069-0.029-0.143-0.053-0.213-0.115C22.338,9.924,22.3,9.831,22.3,9.717
	c0-0.213,0.138-0.365,0.353-0.365c0.234,0,0.363,0.131,0.365,0.371h-0.238c0-0.091-0.045-0.143-0.12-0.143
	c-0.074,0-0.119,0.045-0.119,0.113C22.54,9.779,22.613,9.797,22.743,9.854z M23.404,9.376v1.204h-0.266V9.376H23.404z
	 M23.042,11.588c0.045,0.081,0.083,0.165,0.116,0.251c-0.021-0.104-0.031-0.208-0.031-0.31v-0.696h0.321v1.498h-0.321l-0.443-0.765
	c-0.031-0.053-0.067-0.131-0.11-0.237c0.024,0.087,0.036,0.179,0.036,0.276v0.726h-0.322v-1.498h0.337L23.042,11.588z M24.164,9.982
	c0.036,0.064,0.066,0.133,0.093,0.201c-0.016-0.084-0.024-0.166-0.024-0.248V9.375h0.258v1.205h-0.258l-0.355-0.615
	c-0.025-0.042-0.055-0.105-0.09-0.191c0.02,0.069,0.029,0.145,0.029,0.224v0.583h-0.26V9.375h0.272L24.164,9.982z M23.968,12.331
	h-0.329v-1.499h0.329V12.331z M25.137,9.896h0.541c0.002,0.027,0.004,0.052,0.004,0.074c0,0.137-0.033,0.262-0.07,0.328
	c-0.114,0.207-0.268,0.305-0.475,0.305c-0.156,0-0.289-0.063-0.39-0.179c-0.101-0.114-0.155-0.269-0.155-0.446
	c0-0.179,0.055-0.334,0.155-0.451c0.101-0.115,0.233-0.176,0.39-0.176c0.172,0,0.311,0.071,0.42,0.213l-0.192,0.194
	c-0.052-0.091-0.132-0.137-0.228-0.137c-0.162,0-0.279,0.146-0.279,0.356s0.117,0.355,0.279,0.355c0.127,0,0.225-0.074,0.271-0.206
	h-0.271V9.896z M24.939,10.833h0.252l0.168,0.409c0.011,0.023,0.026,0.062,0.043,0.115c0.015-0.053,0.027-0.092,0.037-0.115
	l0.168-0.409h0.367l-0.41,0.824v0.674h-0.328v-0.674l-0.297-0.597v0.076h-0.293v1.194H24.32v-1.194h-0.293v-0.304h0.798H24.939z"/>
</svg>
