<?xml version="1.0" encoding="utf-8"?>
<!-- Generator: Adobe Illustrator 16.0.0, SVG Export Plug-In . SVG Version: 6.00 Build 0)  -->
<!DOCTYPE svg PUBLIC "-//W3C//DTD SVG 1.0//EN" "http://www.w3.org/TR/2001/REC-SVG-20010904/DTD/svg10.dtd">
<svg version="1.0" id="Layer_1" xmlns="http://www.w3.org/2000/svg" xmlns:xlink="http://www.w3.org/1999/xlink" x="0px" y="0px"
	 width="150px" height="37.394px" viewBox="0 0 150 37.394" enable-background="new 0 0 150 37.394" xml:space="preserve">
<rect y="20.882" fill="#A6A8AB" width="149.994" height="0.627"/>
<g>
	<defs>
		<rect id="SVGID_1_" width="150" height="37.394"/>
	</defs>
	<clipPath id="SVGID_2_">
		<use xlink:href="#SVGID_1_"  overflow="visible"/>
	</clipPath>
	<path clip-path="url(#SVGID_2_)" fill="#FFFFFF" d="M5.806,28.649l-1.155,0.684c-0.216-0.375-0.421-0.619-0.618-0.734
		c-0.203-0.13-0.465-0.194-0.787-0.194c-0.395,0-0.724,0.111-0.985,0.337c-0.261,0.22-0.39,0.497-0.39,0.831
		c0,0.462,0.342,0.832,1.025,1.112l0.943,0.387c0.765,0.31,1.325,0.687,1.681,1.135c0.354,0.446,0.53,0.993,0.53,1.641
		c0,0.869-0.289,1.587-0.867,2.153c-0.583,0.571-1.306,0.857-2.17,0.857c-0.819,0-1.495-0.244-2.029-0.731
		c-0.526-0.487-0.853-1.17-0.984-2.05l1.442-0.318c0.065,0.555,0.18,0.938,0.343,1.149c0.293,0.407,0.721,0.61,1.284,0.61
		c0.444,0,0.812-0.148,1.106-0.445c0.293-0.297,0.439-0.674,0.439-1.13c0-0.184-0.025-0.351-0.076-0.503
		c-0.051-0.153-0.13-0.293-0.238-0.423c-0.108-0.128-0.247-0.248-0.419-0.359c-0.171-0.112-0.374-0.219-0.611-0.321l-0.911-0.378
		c-1.291-0.546-1.938-1.344-1.938-2.395c0-0.708,0.272-1.301,0.814-1.776c0.542-0.481,1.216-0.721,2.023-0.721
		C4.346,27.066,5.195,27.592,5.806,28.649"/>
</g>
<polygon fill="#FFFFFF" points="13.638,27.249 13.638,30.94 9.567,30.94 9.567,27.249 8.144,27.249 8.144,36.685 9.567,36.685 
	9.567,32.279 13.638,32.279 13.638,36.685 15.061,36.685 15.061,27.249 "/>
<path fill="#FFFFFF" d="M21.637,29.847l1.399,3.207H20.17L21.637,29.847z M16.992,36.685h1.534l1.052-2.292h4.039l0.989,2.292h1.559
	l-4.504-10.029L16.992,36.685z"/>
<g>
	<defs>
		<rect id="SVGID_3_" width="150" height="37.394"/>
	</defs>
	<clipPath id="SVGID_4_">
		<use xlink:href="#SVGID_3_"  overflow="visible"/>
	</clipPath>
	<path clip-path="url(#SVGID_4_)" fill="#FFFFFF" d="M29.771,35.346h0.642c0.638,0,1.171-0.067,1.593-0.201
		c0.425-0.143,0.808-0.368,1.15-0.679c0.701-0.64,1.051-1.473,1.051-2.5c0-1.034-0.346-1.874-1.039-2.518
		c-0.623-0.574-1.542-0.862-2.755-0.862h-0.642V35.346z M28.346,36.685v-9.437h1.98c0.95,0,1.7,0.094,2.25,0.281
		c0.59,0.184,1.127,0.495,1.606,0.935c0.975,0.889,1.461,2.057,1.461,3.502c0,1.451-0.507,2.624-1.522,3.521
		c-0.509,0.448-1.042,0.76-1.6,0.935c-0.522,0.175-1.262,0.264-2.219,0.264H28.346z"/>
</g>
<polygon fill="#FFFFFF" points="42.743,27.249 40.58,31.02 38.424,27.249 36.785,27.249 39.865,32.608 39.865,36.685 41.29,36.685 
	41.29,32.608 44.383,27.249 "/>
<g>
	<defs>
		<rect id="SVGID_5_" width="150" height="37.394"/>
	</defs>
	<clipPath id="SVGID_6_">
		<use xlink:href="#SVGID_5_"  overflow="visible"/>
	</clipPath>
	<path clip-path="url(#SVGID_6_)" fill="#FFFFFF" d="M56.938,31.771h3.9v0.312c0,0.71-0.084,1.337-0.251,1.883
		c-0.163,0.505-0.438,0.978-0.825,1.417c-0.876,0.987-1.991,1.48-3.344,1.48c-1.319,0-2.449-0.478-3.392-1.432
		c-0.941-0.957-1.41-2.105-1.41-3.446c0-1.368,0.478-2.53,1.436-3.483c0.957-0.957,2.122-1.437,3.495-1.437
		c0.737,0,1.426,0.15,2.066,0.451c0.612,0.299,1.212,0.787,1.804,1.462l-1.015,0.973c-0.775-1.031-1.718-1.547-2.831-1.547
		c-0.998,0-1.834,0.345-2.511,1.032c-0.677,0.678-1.015,1.524-1.015,2.542c0,1.053,0.378,1.918,1.131,2.599
		c0.704,0.631,1.469,0.946,2.292,0.946c0.7,0,1.33-0.234,1.888-0.707c0.558-0.476,0.87-1.044,0.935-1.707h-2.353V31.771z"/>
	<path clip-path="url(#SVGID_6_)" fill="#FFFFFF" d="M64.803,31.582h0.453c1.348,0,2.023-0.516,2.023-1.546
		c0-0.966-0.657-1.449-1.969-1.449h-0.507V31.582z M66.576,32.664l2.921,4.021h-1.742l-2.695-3.861h-0.257v3.861h-1.424v-9.436
		h1.669c1.247,0,2.147,0.234,2.701,0.703c0.61,0.521,0.916,1.21,0.916,2.065c0,0.668-0.19,1.242-0.574,1.724
		C67.708,32.221,67.203,32.53,66.576,32.664"/>
	<path clip-path="url(#SVGID_6_)" fill="#FFFFFF" d="M72.043,31.939c0,1.042,0.35,1.899,1.05,2.571
		c0.696,0.672,1.501,1.007,2.414,1.007c0.991,0,1.826-0.342,2.506-1.025c0.681-0.691,1.021-1.534,1.021-2.528
		c0-1.005-0.337-1.848-1.008-2.527c-0.669-0.684-1.496-1.026-2.481-1.026c-0.982,0-1.812,0.343-2.488,1.026
		C72.38,30.112,72.043,30.945,72.043,31.939 M70.606,31.924c0-1.329,0.487-2.47,1.461-3.422c0.968-0.954,2.135-1.432,3.495-1.432
		c1.344,0,2.498,0.481,3.459,1.443c0.966,0.961,1.449,2.116,1.449,3.465c0,1.356-0.485,2.508-1.455,3.453
		c-0.973,0.949-2.149,1.424-3.526,1.424c-1.218,0-2.312-0.422-3.282-1.265C71.141,34.658,70.606,33.436,70.606,31.924"/>
</g>
<polygon fill="#FFFFFF" points="88.207,27.249 85.562,33.789 82.951,27.249 81.393,27.249 85.53,37.394 89.766,27.249 "/>
<polygon fill="#FFFFFF" points="91.939,27.249 91.939,36.685 97.146,36.685 97.146,35.346 93.363,35.346 93.363,32.193 
	97.036,32.193 97.036,30.854 93.363,30.854 93.363,28.586 97.146,28.586 97.146,27.249 "/>
<polygon fill="#FFFFFF" points="110.654,33.874 107.415,26.541 105.428,36.685 106.9,36.685 107.914,30.982 110.628,37.12 
	113.422,30.988 114.332,36.685 115.792,36.685 114.009,26.541 "/>
<polygon fill="#FFFFFF" points="117.667,27.249 117.667,36.685 122.873,36.685 122.873,35.346 119.09,35.346 119.09,32.193 
	122.764,32.193 122.764,30.854 119.09,30.854 119.09,28.586 122.873,28.586 122.873,27.249 "/>
<polygon fill="#FFFFFF" points="125.255,27.249 125.255,28.586 127.425,28.586 127.425,36.685 128.85,36.685 128.85,28.586 
	131.013,28.586 131.013,27.249 "/>
<g>
	<defs>
		<rect id="SVGID_7_" width="150" height="37.394"/>
	</defs>
	<clipPath id="SVGID_8_">
		<use xlink:href="#SVGID_7_"  overflow="visible"/>
	</clipPath>
	<path clip-path="url(#SVGID_8_)" fill="#FFFFFF" d="M134.708,31.582h0.453c1.349,0,2.023-0.516,2.023-1.546
		c0-0.966-0.656-1.449-1.968-1.449h-0.509V31.582z M136.481,32.664l2.922,4.021h-1.742l-2.695-3.861h-0.258v3.861h-1.423v-9.436
		h1.668c1.246,0,2.148,0.234,2.702,0.703c0.611,0.521,0.916,1.21,0.916,2.065c0,0.668-0.192,1.242-0.574,1.724
		C137.614,32.221,137.108,32.53,136.481,32.664"/>
	<path clip-path="url(#SVGID_8_)" fill="#FFFFFF" d="M141.572,31.939c0,1.042,0.351,1.899,1.053,2.571
		c0.695,0.672,1.501,1.007,2.414,1.007c0.988,0,1.824-0.342,2.505-1.025c0.681-0.691,1.02-1.534,1.02-2.528
		c0-1.005-0.336-1.848-1.008-2.527c-0.667-0.684-1.495-1.026-2.48-1.026c-0.982,0-1.812,0.343-2.487,1.026
		C141.911,30.112,141.572,30.945,141.572,31.939 M140.137,31.924c0-1.329,0.487-2.47,1.46-3.422
		c0.971-0.954,2.136-1.432,3.497-1.432c1.344,0,2.497,0.481,3.459,1.443c0.965,0.961,1.447,2.116,1.447,3.465
		c0,1.356-0.483,2.508-1.453,3.453c-0.976,0.949-2.15,1.424-3.527,1.424c-1.217,0-2.312-0.422-3.282-1.265
		C140.67,34.658,140.137,33.436,140.137,31.924"/>
	<path clip-path="url(#SVGID_8_)" fill="#A6A8AB" d="M2.231,13.693h1.378c1.009,0,1.75-0.197,2.222-0.594
		c0.498-0.427,0.747-0.97,0.747-1.627c0-0.639-0.24-1.175-0.719-1.609C5.394,9.435,4.561,9.221,3.36,9.221H2.231V13.693z
		 M2.231,7.354h0.698c0.831,0,1.438-0.183,1.824-0.551c0.387-0.366,0.58-0.908,0.58-1.622c0-0.696-0.198-1.224-0.594-1.585
		c-0.395-0.36-0.97-0.541-1.723-0.541H2.231V7.354z M0,15.79V1.006h2.222c0.989,0,1.777,0.077,2.364,0.229
		C5.179,1.389,5.681,1.647,6.09,2.011c0.415,0.377,0.743,0.846,0.985,1.408c0.25,0.568,0.374,1.142,0.374,1.724
		c0,1.059-0.406,1.956-1.215,2.69C7.018,8.101,7.638,8.57,8.091,9.24c0.46,0.665,0.69,1.436,0.69,2.318
		c0,1.156-0.41,2.132-1.227,2.93c-0.491,0.492-1.042,0.833-1.656,1.024c-0.67,0.186-1.509,0.278-2.519,0.278H0z"/>
</g>
<polygon fill="#EE453C" points="13.406,15.79 15.811,15.79 20.684,5.076 22.876,10.102 22.896,10.147 25.337,15.79 27.779,15.79 
	20.721,0.077 "/>
<rect x="33.352" y="1.006" fill="#A6A8AB" width="2.232" height="14.784"/>
<polygon fill="#A6A8AB" points="42.862,0 42.862,15.79 45.092,15.79 45.092,5.44 55.875,16.69 55.875,1.006 53.644,1.006 
	53.644,11.28 "/>
<g>
	<defs>
		<rect id="SVGID_9_" width="150" height="37.394"/>
	</defs>
	<clipPath id="SVGID_10_">
		<use xlink:href="#SVGID_9_"  overflow="visible"/>
	</clipPath>
	<path clip-path="url(#SVGID_10_)" fill="#A6A8AB" d="M65.374,13.693h1.378c1.009,0,1.75-0.197,2.222-0.594
		c0.498-0.427,0.748-0.97,0.748-1.627c0-0.639-0.24-1.175-0.718-1.609c-0.466-0.428-1.3-0.642-2.5-0.642h-1.13V13.693z
		 M65.374,7.354h0.698c0.831,0,1.438-0.183,1.825-0.551c0.386-0.366,0.58-0.908,0.58-1.622c0-0.696-0.198-1.224-0.594-1.585
		c-0.396-0.36-0.97-0.541-1.724-0.541h-0.785V7.354z M63.143,15.79V1.006h2.222c0.989,0,1.777,0.077,2.364,0.229
		c0.594,0.154,1.095,0.413,1.504,0.776c0.415,0.377,0.743,0.846,0.987,1.408c0.248,0.568,0.372,1.142,0.372,1.724
		c0,1.059-0.404,1.956-1.215,2.69c0.785,0.268,1.404,0.737,1.857,1.407c0.46,0.665,0.69,1.436,0.69,2.318
		c0,1.156-0.41,2.132-1.226,2.93c-0.491,0.492-1.044,0.833-1.656,1.024c-0.671,0.186-1.51,0.278-2.519,0.278H63.143z"/>
	<path clip-path="url(#SVGID_10_)" fill="#A6A8AB" d="M80.695,7.795h0.71c2.112,0,3.168-0.808,3.168-2.423
		c0-1.513-1.026-2.269-3.083-2.269h-0.795V7.795z M83.473,9.489l4.577,6.3H85.32l-4.223-6.052h-0.402v6.052h-2.229V1.006h2.612
		c1.954,0,3.364,0.366,4.233,1.101c0.957,0.816,1.436,1.895,1.436,3.235c0,1.048-0.3,1.948-0.899,2.701
		C85.247,8.797,84.455,9.278,83.473,9.489"/>
</g>
<rect x="93.997" y="1.006" fill="#A6A8AB" width="2.23" height="14.784"/>
<g>
	<defs>
		<rect id="SVGID_11_" width="150" height="37.394"/>
	</defs>
	<clipPath id="SVGID_12_">
		<use xlink:href="#SVGID_11_"  overflow="visible"/>
	</clipPath>
	<path clip-path="url(#SVGID_12_)" fill="#A6A8AB" d="M105.737,13.693h1.007c1.002,0,1.835-0.104,2.5-0.316
		c0.662-0.223,1.262-0.578,1.798-1.063c1.099-1.002,1.647-2.307,1.647-3.916c0-1.621-0.542-2.937-1.629-3.945
		c-0.976-0.9-2.415-1.35-4.316-1.35h-1.007V13.693z M103.507,15.79V1.006h3.102c1.488,0,2.663,0.147,3.524,0.441
		c0.926,0.287,1.765,0.775,2.518,1.464c1.526,1.392,2.288,3.221,2.288,5.487c0,2.272-0.794,4.111-2.383,5.515
		c-0.798,0.702-1.635,1.19-2.509,1.465c-0.817,0.275-1.976,0.412-3.477,0.412H103.507z"/>
	<path clip-path="url(#SVGID_12_)" fill="#A6A8AB" d="M129.073,8.091h6.108v0.487c0,1.112-0.131,2.095-0.392,2.951
		c-0.256,0.791-0.686,1.531-1.294,2.22c-1.372,1.546-3.117,2.318-5.236,2.318c-2.068,0-3.841-0.747-5.314-2.24
		c-1.475-1.501-2.211-3.3-2.211-5.401c0-2.146,0.75-3.964,2.249-5.458c1.5-1.501,3.326-2.25,5.478-2.25
		c1.155,0,2.233,0.235,3.235,0.705c0.959,0.471,1.899,1.234,2.825,2.292l-1.589,1.522c-1.214-1.615-2.691-2.423-4.434-2.423
		c-1.563,0-2.876,0.541-3.935,1.619c-1.062,1.059-1.592,2.387-1.592,3.984c0,1.646,0.592,3.002,1.773,4.069
		c1.104,0.99,2.301,1.483,3.59,1.483c1.099,0,2.085-0.367,2.959-1.107c0.873-0.745,1.363-1.636,1.465-2.674h-3.687V8.091z"/>
</g>
<polygon fill="#A6A8AB" points="141.714,1.006 141.714,15.789 149.872,15.789 149.872,13.692 143.945,13.692 143.945,8.752 
	149.7,8.752 149.7,6.655 143.945,6.655 143.945,3.103 149.872,3.103 149.872,1.006 "/>
</svg>
