<svg xmlns="http://www.w3.org/2000/svg" xmlns:xlink="http://www.w3.org/1999/xlink" preserveAspectRatio="xMidYMid" width="26" height="13" viewBox="0 0 26 13">
  <defs>
    <style>

      .cls-2 {
        fill: #a6a8ab;
      }
    </style>
  </defs>
  <path d="M25.027,8.898 C25.027,8.898 15.036,8.898 15.036,8.898 C15.036,8.898 15.036,4.658 15.036,4.658 C15.036,4.658 14.074,4.658 14.074,4.658 C14.074,4.658 14.074,3.398 14.074,3.398 C14.074,3.398 19.961,-0.001 19.961,-0.001 C19.961,-0.001 25.919,3.327 25.919,3.327 C25.919,3.327 25.919,4.658 25.919,4.658 C25.919,4.658 25.027,4.658 25.027,4.658 C25.027,4.658 25.027,8.898 25.027,8.898 ZM23.814,3.502 C23.814,3.502 19.996,1.330 19.996,1.330 C19.996,1.330 16.214,3.502 16.214,3.502 C16.214,3.502 16.214,7.777 16.214,7.777 C16.214,7.777 23.814,7.777 23.814,7.777 C23.814,7.777 23.814,3.502 23.814,3.502 ZM21.994,5.149 C21.994,5.149 18.034,5.149 18.034,5.149 C18.034,5.149 18.034,4.063 18.034,4.063 C18.034,4.063 21.994,4.063 21.994,4.063 C21.994,4.063 21.994,5.149 21.994,5.149 ZM21.994,6.761 C21.994,6.761 18.034,6.761 18.034,6.761 C18.034,6.761 18.034,5.675 18.034,5.675 C18.034,5.675 21.994,5.675 21.994,5.675 C21.994,5.675 21.994,6.761 21.994,6.761 ZM10.522,12.580 C9.905,12.580 9.743,12.357 9.581,11.944 C9.581,11.944 8.397,8.807 8.397,8.807 C8.397,8.807 3.518,8.807 3.518,8.807 C3.518,8.807 3.129,6.355 3.129,6.355 C2.837,4.540 2.805,4.302 2.805,4.095 C2.805,3.426 3.307,2.980 3.874,2.980 C4.831,2.980 4.961,3.776 5.074,4.620 C5.074,4.620 5.123,4.970 5.123,4.970 C5.123,4.970 7.717,4.970 7.717,4.970 C7.717,5.957 7.149,6.053 6.290,6.053 C5.917,6.053 5.592,6.037 5.285,6.005 C5.285,6.005 5.495,7.343 5.495,7.343 C5.495,7.343 9.095,7.343 9.095,7.343 C9.095,7.343 10.830,11.944 10.830,11.944 C10.894,12.135 10.927,12.294 10.927,12.373 C10.927,12.517 10.846,12.580 10.522,12.580 ZM4.313,2.597 C3.680,2.597 3.177,2.104 3.177,1.484 C3.177,0.863 3.680,0.369 4.313,0.369 C4.944,0.369 5.447,0.863 5.447,1.484 C5.447,2.104 4.944,2.597 4.313,2.597 ZM4.086,12.214 C5.723,12.214 7.084,11.020 7.327,9.476 C7.327,9.476 8.138,9.476 8.138,9.476 C7.911,11.465 6.177,13.010 4.086,13.010 C1.832,13.010 -0.000,11.211 -0.000,8.998 C-0.000,7.422 0.941,6.053 2.301,5.400 C2.301,5.400 2.415,6.244 2.415,6.244 C1.459,6.801 0.810,7.820 0.810,8.998 C0.810,10.781 2.269,12.214 4.086,12.214 ZM15.032,10.336 C15.032,10.336 15.032,10.580 15.032,10.580 C15.032,10.580 14.449,10.580 14.449,10.580 C14.449,10.580 14.449,9.375 14.449,9.375 C14.449,9.375 15.032,9.375 15.032,9.375 C15.032,9.375 15.032,9.609 15.032,9.609 C15.032,9.609 14.710,9.609 14.710,9.609 C14.710,9.609 14.710,9.854 14.710,9.854 C14.710,9.854 15.032,9.854 15.032,9.854 C15.032,9.854 15.032,10.088 15.032,10.088 C15.032,10.088 14.710,10.088 14.710,10.088 C14.710,10.088 14.710,10.336 14.710,10.336 C14.710,10.336 15.032,10.336 15.032,10.336 ZM14.876,10.803 C15.072,10.803 15.235,10.878 15.363,11.025 C15.488,11.168 15.554,11.361 15.554,11.583 C15.554,11.804 15.488,11.994 15.363,12.139 C15.237,12.285 15.070,12.361 14.876,12.361 C14.684,12.361 14.516,12.285 14.390,12.139 C14.265,11.994 14.199,11.804 14.199,11.583 C14.199,11.361 14.265,11.168 14.389,11.025 C14.516,10.878 14.683,10.803 14.876,10.803 ZM14.876,12.026 C15.079,12.026 15.223,11.845 15.223,11.583 C15.223,11.319 15.079,11.139 14.876,11.139 C14.674,11.139 14.528,11.319 14.528,11.583 C14.528,11.845 14.676,12.026 14.876,12.026 ZM15.280,10.427 C15.179,10.311 15.126,10.156 15.126,9.978 C15.126,9.800 15.179,9.644 15.280,9.528 C15.380,9.413 15.514,9.352 15.670,9.352 C15.825,9.352 15.959,9.412 16.060,9.528 C16.161,9.644 16.214,9.800 16.214,9.978 C16.214,10.128 16.178,10.254 16.106,10.364 C16.106,10.364 16.189,10.459 16.189,10.459 C16.189,10.459 16.037,10.651 16.037,10.651 C16.037,10.651 15.933,10.532 15.933,10.532 C15.851,10.581 15.766,10.604 15.670,10.604 C15.515,10.604 15.380,10.542 15.280,10.427 ZM15.676,10.334 C15.700,10.334 15.722,10.330 15.742,10.322 C15.742,10.322 15.703,10.276 15.703,10.276 C15.703,10.276 15.855,10.090 15.855,10.090 C15.855,10.090 15.914,10.156 15.914,10.156 C15.938,10.099 15.949,10.039 15.949,9.978 C15.949,9.767 15.831,9.622 15.668,9.622 C15.506,9.622 15.390,9.767 15.390,9.978 C15.390,10.190 15.506,10.334 15.676,10.334 ZM16.584,11.333 C16.584,11.663 16.426,11.843 16.120,11.843 C16.120,11.843 16.008,11.843 16.008,11.843 C16.008,11.843 16.008,12.331 16.008,12.331 C16.008,12.331 15.682,12.331 15.682,12.331 C15.682,12.331 15.682,10.833 15.682,10.833 C15.682,10.833 16.135,10.833 16.135,10.833 C16.410,10.833 16.584,11.029 16.584,11.333 ZM16.008,11.125 C16.008,11.125 16.008,11.539 16.008,11.539 C16.008,11.539 16.057,11.539 16.057,11.539 C16.184,11.539 16.254,11.462 16.254,11.329 C16.254,11.190 16.188,11.125 16.050,11.125 C16.050,11.125 16.008,11.125 16.008,11.125 ZM17.159,9.375 C17.159,9.375 17.159,10.148 17.159,10.148 C17.159,10.432 17.002,10.604 16.735,10.604 C16.468,10.604 16.310,10.432 16.310,10.148 C16.310,10.148 16.310,9.375 16.310,9.375 C16.310,9.375 16.574,9.375 16.574,9.375 C16.574,9.375 16.574,10.042 16.574,10.042 C16.574,10.241 16.616,10.338 16.735,10.338 C16.855,10.338 16.897,10.241 16.897,10.042 C16.897,10.042 16.897,9.375 16.897,9.375 C16.897,9.375 17.159,9.375 17.159,9.375 ZM17.590,11.333 C17.590,11.663 17.432,11.843 17.127,11.843 C17.127,11.843 17.015,11.843 17.015,11.843 C17.015,11.843 17.015,12.331 17.015,12.331 C17.015,12.331 16.689,12.331 16.689,12.331 C16.689,12.331 16.689,10.833 16.689,10.833 C16.689,10.833 17.142,10.833 17.142,10.833 C17.417,10.833 17.590,11.029 17.590,11.333 ZM17.015,11.125 C17.015,11.125 17.015,11.539 17.015,11.539 C17.015,11.539 17.064,11.539 17.064,11.539 C17.191,11.539 17.261,11.462 17.261,11.329 C17.261,11.190 17.194,11.125 17.058,11.125 C17.058,11.125 17.015,11.125 17.015,11.125 ZM17.912,10.405 C17.912,10.405 17.511,10.405 17.511,10.405 C17.511,10.405 17.469,10.580 17.469,10.580 C17.469,10.580 17.193,10.580 17.193,10.580 C17.193,10.580 17.551,9.375 17.551,9.375 C17.551,9.375 17.874,9.375 17.874,9.375 C17.874,9.375 18.231,10.580 18.231,10.580 C18.231,10.580 17.955,10.580 17.955,10.580 C17.955,10.580 17.912,10.405 17.912,10.405 ZM17.712,9.620 C17.712,9.620 17.571,10.177 17.571,10.177 C17.571,10.177 17.853,10.177 17.853,10.177 C17.853,10.177 17.712,9.620 17.712,9.620 ZM18.270,9.375 C18.270,9.375 18.532,9.375 18.532,9.375 C18.532,9.375 18.532,10.336 18.532,10.336 C18.532,10.336 18.795,10.336 18.795,10.336 C18.795,10.336 18.795,10.580 18.795,10.580 C18.795,10.580 18.270,10.580 18.270,10.580 C18.270,10.580 18.270,9.375 18.270,9.375 ZM18.310,10.803 C18.506,10.803 18.669,10.878 18.796,11.025 C18.922,11.168 18.988,11.361 18.988,11.583 C18.988,11.804 18.922,11.994 18.796,12.139 C18.671,12.285 18.505,12.361 18.310,12.361 C18.119,12.361 17.951,12.285 17.825,12.139 C17.700,11.994 17.633,11.804 17.633,11.583 C17.633,11.361 17.700,11.168 17.823,11.025 C17.951,10.878 18.117,10.803 18.310,10.803 ZM18.310,12.026 C18.513,12.026 18.657,11.845 18.657,11.583 C18.657,11.319 18.513,11.139 18.310,11.139 C18.109,11.139 17.962,11.319 17.962,11.583 C17.962,11.845 18.110,12.026 18.310,12.026 ZM20.056,9.375 C20.056,9.375 20.056,10.580 20.056,10.580 C20.056,10.580 19.795,10.580 19.795,10.580 C19.795,10.580 19.795,10.091 19.795,10.091 C19.795,10.091 19.462,10.091 19.462,10.091 C19.462,10.091 19.462,10.580 19.462,10.580 C19.462,10.580 19.199,10.580 19.199,10.580 C19.199,10.580 19.199,9.375 19.199,9.375 C19.199,9.375 19.462,9.375 19.462,9.375 C19.462,9.375 19.462,9.846 19.462,9.846 C19.462,9.846 19.795,9.846 19.795,9.846 C19.795,9.846 19.795,9.375 19.795,9.375 C19.795,9.375 20.056,9.375 20.056,9.375 ZM20.065,11.313 C20.065,11.545 19.955,11.698 19.778,11.718 C19.778,11.718 20.118,12.331 20.118,12.331 C20.118,12.331 19.725,12.331 19.725,12.331 C19.725,12.331 19.441,11.694 19.441,11.694 C19.441,11.694 19.441,12.331 19.441,12.331 C19.441,12.331 19.115,12.331 19.115,12.331 C19.115,12.331 19.115,10.833 19.115,10.833 C19.115,10.833 19.591,10.833 19.591,10.833 C19.892,10.833 20.065,11.029 20.065,11.313 ZM19.441,11.125 C19.441,11.125 19.441,11.539 19.441,11.539 C19.441,11.539 19.539,11.539 19.539,11.539 C19.664,11.539 19.734,11.462 19.734,11.329 C19.734,11.190 19.667,11.125 19.530,11.125 C19.530,11.125 19.441,11.125 19.441,11.125 ZM20.082,10.833 C20.082,10.833 20.994,10.833 20.994,10.833 C20.994,10.833 20.994,11.137 20.994,11.137 C20.994,11.137 20.702,11.137 20.702,11.137 C20.702,11.137 20.702,12.331 20.702,12.331 C20.702,12.331 20.376,12.331 20.376,12.331 C20.376,12.331 20.376,11.137 20.376,11.137 C20.376,11.137 20.082,11.137 20.082,11.137 C20.082,11.137 20.082,10.833 20.082,10.833 ZM20.703,10.604 C20.549,10.604 20.414,10.542 20.313,10.425 C20.212,10.309 20.158,10.156 20.158,9.978 C20.158,9.800 20.212,9.644 20.311,9.530 C20.414,9.412 20.548,9.352 20.703,9.352 C20.860,9.352 20.992,9.412 21.094,9.530 C21.194,9.644 21.248,9.800 21.248,9.978 C21.248,10.156 21.194,10.309 21.094,10.425 C20.993,10.542 20.859,10.604 20.703,10.604 ZM20.703,9.622 C20.541,9.622 20.424,9.767 20.424,9.978 C20.424,10.189 20.542,10.334 20.703,10.334 C20.866,10.334 20.982,10.189 20.982,9.978 C20.982,9.767 20.866,9.622 20.703,9.622 ZM21.374,11.663 C21.374,11.910 21.427,12.030 21.575,12.030 C21.724,12.030 21.776,11.910 21.776,11.663 C21.776,11.663 21.776,10.833 21.776,10.833 C21.776,10.833 22.102,10.833 22.102,10.833 C22.102,10.833 22.102,11.794 22.102,11.794 C22.102,12.147 21.908,12.361 21.575,12.361 C21.244,12.361 21.046,12.147 21.046,11.794 C21.046,11.794 21.046,10.833 21.046,10.833 C21.046,10.833 21.374,10.833 21.374,10.833 C21.374,10.833 21.374,11.663 21.374,11.663 ZM22.193,9.375 C22.193,9.375 22.193,10.148 22.193,10.148 C22.193,10.432 22.036,10.604 21.767,10.604 C21.502,10.604 21.343,10.432 21.343,10.148 C21.343,10.148 21.343,9.375 21.343,9.375 C21.343,9.375 21.606,9.375 21.606,9.375 C21.606,9.375 21.606,10.042 21.606,10.042 C21.606,10.241 21.649,10.338 21.767,10.338 C21.888,10.338 21.930,10.241 21.930,10.042 C21.930,10.042 21.930,9.375 21.930,9.375 C21.930,9.375 22.193,9.375 22.193,9.375 ZM22.743,9.853 C22.826,9.889 22.905,9.916 22.970,9.997 C23.017,10.055 23.040,10.128 23.040,10.217 C23.040,10.448 22.892,10.605 22.654,10.605 C22.434,10.605 22.297,10.462 22.292,10.230 C22.292,10.230 22.534,10.230 22.534,10.230 C22.536,10.311 22.585,10.359 22.664,10.359 C22.744,10.359 22.791,10.315 22.791,10.249 C22.791,10.176 22.730,10.144 22.621,10.098 C22.552,10.069 22.479,10.045 22.408,9.983 C22.338,9.924 22.300,9.831 22.300,9.717 C22.300,9.504 22.438,9.352 22.653,9.352 C22.887,9.352 23.015,9.482 23.018,9.722 C23.018,9.722 22.780,9.722 22.780,9.722 C22.779,9.632 22.734,9.580 22.659,9.580 C22.585,9.580 22.540,9.625 22.540,9.694 C22.540,9.779 22.613,9.797 22.743,9.853 ZM23.404,9.376 C23.404,9.376 23.404,10.580 23.404,10.580 C23.404,10.580 23.139,10.580 23.139,10.580 C23.139,10.580 23.139,9.376 23.139,9.376 C23.139,9.376 23.404,9.376 23.404,9.376 ZM23.042,11.588 C23.087,11.669 23.125,11.753 23.158,11.839 C23.137,11.734 23.127,11.631 23.127,11.529 C23.127,11.529 23.127,10.833 23.127,10.833 C23.127,10.833 23.448,10.833 23.448,10.833 C23.448,10.833 23.448,12.331 23.448,12.331 C23.448,12.331 23.127,12.331 23.127,12.331 C23.127,12.331 22.684,11.567 22.684,11.567 C22.653,11.514 22.616,11.435 22.573,11.329 C22.598,11.416 22.609,11.508 22.609,11.605 C22.609,11.605 22.609,12.331 22.609,12.331 C22.609,12.331 22.287,12.331 22.287,12.331 C22.287,12.331 22.287,10.833 22.287,10.833 C22.287,10.833 22.624,10.833 22.624,10.833 C22.624,10.833 23.042,11.588 23.042,11.588 ZM24.164,9.983 C24.200,10.047 24.231,10.115 24.257,10.184 C24.241,10.099 24.232,10.017 24.232,9.935 C24.232,9.935 24.232,9.375 24.232,9.375 C24.232,9.375 24.490,9.375 24.490,9.375 C24.490,9.375 24.490,10.580 24.490,10.580 C24.490,10.580 24.232,10.580 24.232,10.580 C24.232,10.580 23.877,9.965 23.877,9.965 C23.851,9.923 23.822,9.859 23.787,9.774 C23.807,9.843 23.816,9.918 23.816,9.997 C23.816,9.997 23.816,10.580 23.816,10.580 C23.816,10.580 23.557,10.580 23.557,10.580 C23.557,10.580 23.557,9.375 23.557,9.375 C23.557,9.375 23.829,9.375 23.829,9.375 C23.829,9.375 24.164,9.983 24.164,9.983 ZM23.968,12.331 C23.968,12.331 23.639,12.331 23.639,12.331 C23.639,12.331 23.639,10.832 23.639,10.832 C23.639,10.832 23.968,10.832 23.968,10.832 C23.968,10.832 23.968,12.331 23.968,12.331 ZM25.137,9.897 C25.137,9.897 25.678,9.897 25.678,9.897 C25.679,9.924 25.682,9.948 25.682,9.970 C25.682,10.107 25.648,10.233 25.611,10.299 C25.497,10.506 25.344,10.604 25.137,10.604 C24.981,10.604 24.848,10.540 24.747,10.425 C24.646,10.311 24.592,10.156 24.592,9.978 C24.592,9.800 24.646,9.644 24.747,9.528 C24.848,9.412 24.981,9.352 25.137,9.352 C25.308,9.352 25.447,9.423 25.556,9.565 C25.556,9.565 25.364,9.759 25.364,9.759 C25.312,9.668 25.232,9.622 25.137,9.622 C24.975,9.622 24.858,9.767 24.858,9.978 C24.858,10.189 24.975,10.334 25.137,10.334 C25.264,10.334 25.362,10.260 25.408,10.128 C25.408,10.128 25.137,10.128 25.137,10.128 C25.137,10.128 25.137,9.897 25.137,9.897 ZM24.939,10.833 C24.939,10.833 25.192,10.833 25.192,10.833 C25.192,10.833 25.360,11.242 25.360,11.242 C25.370,11.266 25.386,11.305 25.402,11.357 C25.417,11.305 25.430,11.266 25.440,11.242 C25.440,11.242 25.608,10.833 25.608,10.833 C25.608,10.833 25.975,10.833 25.975,10.833 C25.975,10.833 25.565,11.657 25.565,11.657 C25.565,11.657 25.565,12.331 25.565,12.331 C25.565,12.331 25.236,12.331 25.236,12.331 C25.236,12.331 25.236,11.657 25.236,11.657 C25.236,11.657 24.939,11.060 24.939,11.060 C24.939,11.060 24.939,11.137 24.939,11.137 C24.939,11.137 24.647,11.137 24.647,11.137 C24.647,11.137 24.647,12.331 24.647,12.331 C24.647,12.331 24.321,12.331 24.321,12.331 C24.321,12.331 24.321,11.137 24.321,11.137 C24.321,11.137 24.027,11.137 24.027,11.137 C24.027,11.137 24.027,10.833 24.027,10.833 C24.027,10.833 24.825,10.833 24.825,10.833 C24.825,10.833 24.939,10.833 24.939,10.833 Z" id="path-1" class="cls-2" fill-rule="evenodd"/>
</svg>
