<?xml version="1.0" encoding="utf-8"?>
<!-- Generator: Adobe Illustrator 16.0.0, SVG Export Plug-In . SVG Version: 6.00 Build 0)  -->
<!DOCTYPE svg PUBLIC "-//W3C//DTD SVG 1.0//EN" "http://www.w3.org/TR/2001/REC-SVG-20010904/DTD/svg10.dtd">
<svg version="1.0" id="Layer_1" xmlns="http://www.w3.org/2000/svg" xmlns:xlink="http://www.w3.org/1999/xlink" x="0px" y="0px"
	 width="20px" height="44px" viewBox="0 0 20 44" enable-background="new 0 0 20 44" xml:space="preserve">
<path id="path-1" fill="#A6A8AB" d="M9.99-0.003c-5.525,0-10.004,4.479-10.004,10.005c0,5.52,4.469,9.995,9.987,10.004v-7.265H8.181
	v-2.684h1.792V8.192h0.006c0.054-1.763,0.671-3.442,3.68-3.548V4.633h2.29v2.684h-1.793c-0.568,0-0.967,0.48-0.967,1.073v1.667h2.76
	l-0.456,2.684h-2.304v6.733c3.955-1.336,6.806-5.067,6.806-9.473C19.995,4.476,15.516-0.003,9.99-0.003"/>
<path id="path-1_1_" fill="#FFFFFF" d="M9.99,23.991c-5.525,0-10.004,4.479-10.004,10.005c0,5.52,4.469,9.995,9.987,10.004v-7.265
	H8.181v-2.684h1.792v-1.865h0.006c0.055-1.764,0.672-3.442,3.681-3.549v-0.011h2.29v2.685h-1.793c-0.568,0-0.967,0.479-0.967,1.072
	v1.668h2.76l-0.456,2.684h-2.304v6.733c3.955-1.336,6.806-5.067,6.806-9.473C19.995,28.47,15.516,23.991,9.99,23.991"/>
</svg>
