<?xml version="1.0" encoding="utf-8"?>
<!-- Generator: Adobe Illustrator 16.0.0, SVG Export Plug-In . SVG Version: 6.00 Build 0)  -->
<!DOCTYPE svg PUBLIC "-//W3C//DTD SVG 1.0//EN" "http://www.w3.org/TR/2001/REC-SVG-20010904/DTD/svg10.dtd">
<svg version="1.0" id="Layer_1" xmlns="http://www.w3.org/2000/svg" xmlns:xlink="http://www.w3.org/1999/xlink" x="0px" y="0px"
	 width="178px" height="178px" viewBox="391 191 178 178" enable-background="new 391 191 178 178" xml:space="preserve">
<linearGradient id="SVGID_1_" gradientUnits="userSpaceOnUse" x1="706.835" y1="-58.2744" x2="850.6106" y2="-158.9471" gradientTransform="matrix(1 0 0 -1 -298.5 171.5)">
	<stop  offset="0" style="stop-color:#3B3B3C"/>
	<stop  offset="0.2315" style="stop-color:#404041"/>
	<stop  offset="0.5009" style="stop-color:#4E4E4E"/>
	<stop  offset="0.65" style="stop-color:#595959"/>
	<stop  offset="0.6518" style="stop-color:#595959"/>
	<stop  offset="0.7513" style="stop-color:#484849"/>
	<stop  offset="0.8609" style="stop-color:#3E3E3F"/>
	<stop  offset="1" style="stop-color:#3B3B3C"/>
</linearGradient>
<path fill="url(#SVGID_1_)" d="M412.903,333.1l-0.8,0.601l-0.2-0.2c-8.5-10.4-14.399-22.3-17.3-35.4c-5.6-24.8,0.1-50.6,15.7-71
	l0.1-0.2l0.8,0.6l-0.199,0.2c-15.4,20.1-21,45.7-15.5,70.2c2.899,13,8.699,24.8,17.1,35L412.903,333.1z M566.504,265.5
	c-3.9-25.2-18.701-47.2-40.701-60.4l-0.199-0.1l-0.5,0.8l0.199,0.1c21.801,13.1,36.4,34.8,40.301,59.7c2,13.1,1,26.1-3.1,38.6
	l-0.102,0.2l0.9,0.3l0.1-0.2C567.504,291.9,568.604,278.8,566.504,265.5z M426.903,219.7l2.7-2.2c1.3-1,1.7-2.2,0.8-3.3l0,0
	c-0.6-0.7-1.3-0.8-2.2-0.5c0.2-0.6,0.301-1.2-0.3-1.8l0,0c-0.3-0.4-0.7-0.6-1.2-0.6c-0.6-0.1-1.199,0.2-1.899,0.7l-2.601,2.1
	L426.903,219.7z M426.903,213.1c0.3,0.4,0.101,0.9-0.399,1.3l-1.101,0.9l-1-1.2l1.2-1C426.103,212.8,426.603,212.7,426.903,213.1
	L426.903,213.1z M427.603,215.2c0.6-0.5,1.1-0.5,1.4-0.1l0,0c0.3,0.4,0.199,0.9-0.4,1.3l-1.5,1.2l-1-1.2L427.603,215.2
	 M433.703,214.3l1.4-0.9l-0.3-1.7l2.6-1.7l1.4,1l1.399-0.9l-6.6-4.4l-1.3,0.8L433.703,214.3z M434.503,210.2l-0.5-2.5l2.1,1.5
	L434.503,210.2z M442.903,208.8l1.4-0.7l-3.3-6.4l-1.4,0.7L442.903,208.8z M447.803,206.4l1.5-0.6l-1.7-4.3l5,3l1.3-0.5l-2.7-6.7
	l-1.5,0.6l1.601,4.1l-4.8-2.9l-1.4,0.5L447.803,206.4z M457.403,202.9l3.4-0.9c1.6-0.4,2.5-1.3,2.2-2.6l0,0
	c-0.2-0.9-0.9-1.3-1.801-1.4c0.4-0.4,0.7-1,0.5-1.7l0,0c-0.1-0.5-0.399-0.8-0.8-1.1c-0.5-0.3-1.2-0.4-2-0.1l-3.3,0.8L457.403,202.9z
	 M460.203,197c0.101,0.5-0.199,0.9-0.899,1l-1.4,0.4l-0.399-1.5l1.5-0.4C459.703,196.3,460.103,196.5,460.203,197L460.203,197z
	 M460.003,199.2c0.8-0.2,1.199,0,1.399,0.5l0,0c0.101,0.5-0.2,0.9-0.899,1l-1.9,0.5l-0.4-1.5L460.003,199.2 M466.703,200.8
	l1.601-0.2l-0.3-2.3l1.3-0.2l1.899,2.1l1.9-0.3l-2.1-2.3c0.899-0.5,1.399-1.3,1.3-2.4l0,0c-0.101-0.7-0.4-1.2-0.8-1.6
	c-0.5-0.4-1.301-0.6-2.2-0.4l-3.3,0.4L466.703,200.8z M467.803,196.9l-0.3-2.1l1.6-0.2c0.8-0.1,1.3,0.2,1.4,0.9l0,0
	c0.1,0.6-0.301,1.1-1.101,1.2L467.803,196.9z M476.203,199.8l1.601-0.1l-0.3-7.2l-1.601,0.1L476.203,199.8z M481.604,199.6l2.9,0.2
	c2.299,0.1,4-1.4,4.1-3.4l0,0c0.1-2-1.4-3.7-3.701-3.8l-2.898-0.2L481.604,199.6z M484.703,194c1.301,0.1,1.9,1,1.9,2.3l0,0
	c0,1.3-0.9,2.1-2.201,2l-1.199-0.1l0.199-4.4L484.703,194z M492.004,196.7c-0.4,2.1,0.898,3.9,3.1,4.3c1.299,0.2,2.4-0.1,3.299-0.6
	l0.602-3.1l-3.102-0.6l-0.299,1.4l1.6,0.3l-0.199,1c-0.5,0.2-1,0.3-1.602,0.2c-1.299-0.2-2-1.3-1.799-2.6l0,0
	c0.199-1.2,1.299-2.1,2.5-1.8c0.799,0.1,1.299,0.5,1.699,1.1l1.201-1c-0.602-0.8-1.301-1.3-2.602-1.5
	C494.203,193.3,492.303,194.7,492.004,196.7L492.004,196.7 M501.604,202.4l5.299,1.6l0.4-1.3l-3.799-1.2l0.5-1.4l3.299,1l0.4-1.4
	l-3.301-1l0.4-1.4l3.701,1.1l0.398-1.4l-5.299-1.6L501.604,202.4z M421.703,344.5c0.2,1.1,0.801,2.1,1.7,2.8
	c1.2,1,2.601,1.101,3.5-0.1l0,0c0.8-1,0.5-1.9-0.399-3.101c-0.801-1-0.9-1.399-0.601-1.699l0,0c0.2-0.301,0.7-0.301,1.101,0.1
	c0.5,0.4,0.8,1,1,1.7l1.399-0.4c-0.2-0.899-0.7-1.7-1.5-2.399c-1.2-0.9-2.5-0.9-3.399,0.1l0,0c-0.9,1.1-0.4,2,0.5,3.2
	c0.699,1,0.8,1.3,0.5,1.6l0,0c-0.301,0.3-0.7,0.3-1.301-0.1c-0.6-0.5-1-1.2-1.1-2L421.703,344.5 M428.803,351.3l1.399,0.9l1.601-2.4
	l2.5,1.601l-1.601,2.399l1.4,0.9l4-6.101l-1.3-0.899l-1.601,2.399l-2.5-1.6l1.601-2.4l-1.4-0.899L428.803,351.3z M437.203,356.4
	l1.5,0.699l1.301-1.199l2.8,1.3l-0.101,1.7l1.5,0.699l0.4-7.899l-1.3-0.601L437.203,356.4z M441.203,354.9l1.9-1.7l-0.2,2.5
	L441.203,354.9z M447.603,361.1l2.7,0.9c2.2,0.7,4.2-0.2,4.899-2.2l0,0c0.7-1.899-0.3-3.899-2.5-4.6l-2.699-0.9L447.603,361.1z
	 M452.303,356.6c1.2,0.4,1.8,1.601,1.399,2.801l0,0c-0.399,1.199-1.6,1.8-2.8,1.3l-1.2-0.4l1.5-4.1L452.303,356.6z M459.303,364.6
	l1.6,0.301l0.7-2.801l3.7-3.6l-1.8-0.4l-2.4,2.4l-1-3.2l-1.8-0.399l1.8,4.899L459.303,364.6z M472.603,363.1
	c0,2.101,1.4,3.801,3.7,3.9c1.3,0.1,2.399-0.4,3.2-1l0.1-3.1l-3.2-0.101l-0.1,1.4l1.6,0.1v1c-0.399,0.3-0.8,0.4-1.399,0.4
	c-1.301-0.101-1.9-1.101-1.9-2.4l0,0c0-1.2,0.9-2.2,2-2.2c0.8,0,1.3,0.301,1.8,0.801l1-1.2c-0.7-0.7-1.5-1.101-2.8-1.101
	C474.403,359.4,472.603,361.1,472.603,363.1V363 M483.703,366.9l1.6-0.101l-0.199-2.3l1.299-0.1l1.701,2.199l1.9-0.1l-2-2.4
	c0.898-0.399,1.5-1.199,1.398-2.399l0,0c-0.1-0.7-0.299-1.2-0.799-1.601c-0.5-0.399-1.301-0.6-2.201-0.6l-3.299,0.3L483.703,366.9z
	 M485.004,363l-0.201-2.1l1.6-0.101c0.801-0.1,1.301,0.2,1.301,0.9l0,0c0,0.6-0.4,1.1-1.199,1.1L485.004,363z M492.803,362.5
	c0.4,2,2.4,3.3,4.6,2.8c2.201-0.5,3.5-2.5,3-4.5l0,0c-0.398-2-2.398-3.3-4.6-2.8C493.604,358.4,492.303,360.4,492.803,362.5
	L492.803,362.5 M498.703,361.2c0.301,1.2-0.4,2.399-1.699,2.7c-1.301,0.3-2.4-0.601-2.602-1.801l0,0
	c-0.299-1.199,0.4-2.399,1.701-2.699C497.402,359.1,498.504,360,498.703,361.2L498.703,361.2 M507.104,355.1l-0.201,5.4l-3.398-4.3
	l-1.701,0.5l5.1,6l1.4-0.4l0.6-7.8L507.104,355.1z M514.402,360l5.102-2.3l-0.602-1.3l-3.6,1.6l-0.6-1.4l3.199-1.399l-0.6-1.3
	l-3.199,1.399l-0.6-1.3l3.6-1.6l-0.6-1.301l-5,2.301L514.402,360z M527.902,353.1l1.301-0.899l-2.699-3.8l3.398,1.3l0,0l-0.1-3.7
	l2.701,3.9l1.299-0.9l-4.199-5.9l-1.4,1l0.199,3.601l-3.299-1.4l-1.4,1L527.902,353.1z M537.402,346.1l4.201-3.699l-1-1.101
	l-3,2.601l-1-1.101l2.6-2.3l-1-1.1l-2.6,2.3l-1-1.101l2.9-2.6l-1-1.1l-4.102,3.6L537.402,346.1z M545.604,338.3l1.1-1.2
	l-4.301-3.899l1.5-1.601l-1.1-1l-4.1,4.5l1.1,1l1.5-1.6L545.604,338.3z M550.504,332.7l0.898-1.3l-1.898-1.4l0.699-1l2.801,0.1
	l1.1-1.5l-3.201-0.1c0.301-0.9,0-1.9-0.898-2.6l0,0c-0.602-0.4-1.201-0.601-1.701-0.5c-0.699,0.1-1.299,0.5-1.9,1.3l-2,2.7
	L550.504,332.7z M548.402,329.2l-1.699-1.2l0.9-1.3c0.5-0.601,1-0.8,1.6-0.4l0,0c0.5,0.4,0.6,1,0.1,1.601L548.402,329.2z
	 M552.902,323c1.801,1,4.102,0.4,5.201-1.6s0.4-4.2-1.4-5.2l0,0c-1.801-1-4.1-0.4-5.199,1.6C550.402,319.7,551.104,322,552.902,323
	L552.902,323 M555.902,317.7c1.102,0.6,1.602,1.899,0.9,3c-0.6,1.1-2,1.399-3.1,0.8l0,0c-1.1-0.6-1.6-1.9-0.9-3
	C553.402,317.4,554.803,317.1,555.902,317.7L555.902,317.7 M433.403,331.1l0.3-0.1c-0.1-0.3-0.1-0.8,0.301-0.8
	c0.699-0.101,1.8,0.6,3.6,0.3c2.6-0.5,3.5-2.5,3.1-4.8c-0.5-2.3-1.699-3-4.399-2.9c-3.101,0-3.7-0.2-4.101-1.8
	c-0.3-1.6,0.601-2.9,2.101-3.1c2.399-0.5,3.899,1.199,4.399,3.199l0.301-0.1l-0.7-3.7l-0.3,0.101c0,0.199,0,0.699-0.4,0.8
	c-0.6,0.1-1.5-0.8-3.4-0.5c-2,0.399-3,2.1-2.699,4.2c0.6,3,2,3.199,4.899,3.1c2.101-0.1,3.2,0.3,3.5,2.1
	c0.3,1.601-0.7,2.9-2.399,3.301c-2.101,0.399-4.2-0.601-4.801-3.601l-0.3,0.101L433.403,331.1z M446.903,328.1l-1.8,0.4l0.1,0.3
	l5.5-1.1l-0.1-0.3l-1.8,0.399l-2.3-12l0.399-0.1c3.2-0.601,4-0.3,4.5,2.7l0.3-0.101l-0.699-3.7l-10.9,2.101l0.7,3.7l0.3-0.101
	c-0.6-2.899,0.1-3.5,3.2-4.2l0.399-0.1L446.903,328.1z M458.603,321.6l-3.6,0.7l0.699-5.7l0,0L458.603,321.6z M460.703,325.4
	l-1.699,0.3l0.1,0.3l5.2-1l-0.101-0.3l-1.5,0.3l-6.8-11.7h-0.2l-1.6,12.3c-0.1,1.101-0.4,1.2-0.9,1.301l-0.6,0.1l0.1,0.3l3.7-0.7
	l-0.1-0.3l-0.9,0.2c-0.6,0.1-0.8,0-0.899-0.3c-0.101-0.3,0-0.8,0.1-1.101l0.3-2.399l3.8-0.7L460.703,325.4z M466.103,311.9l1.2-0.2
	c2.5-0.5,3.3,0.899,3.6,2.3c0.4,2.1-0.7,3-2.8,3.5l-0.9,0.2L466.103,311.9z M466.603,324.3l-1.8,0.3l0.1,0.301l5.4-1.101l-0.101-0.3
	l-1.8,0.4l-1.2-6l1.2-0.2c2-0.4,2.5,0.6,2.9,1.7l0.3,1c0.6,2,1,3.1,3.2,2.699c0.7-0.1,1.1-0.3,1.399-0.5l-0.199-0.199
	c-0.2,0.1-0.4,0.3-0.7,0.3c-0.3,0.1-0.8,0.1-1.101-0.9l-0.699-2.1c-0.7-2.3-1.9-2.5-4-2.3l0,0c1.3-0.4,3.699-1.5,3.3-3.7
	c-0.5-2.7-2.8-2.7-4.9-2.3l-5.5,1.1l0.101,0.3l1.8-0.3L466.603,324.3z M481.004,321.5l-1.801,0.4l0.101,0.3l5.5-1.101l-0.1-0.3
	l-1.801,0.4l-2.299-12l0.4-0.101c3.199-0.6,4-0.3,4.5,2.7l0.299-0.1l-0.699-3.7l-10.901,2.1l0.7,3.7l0.3-0.1
	c-0.6-2.9,0.101-3.5,3.2-4.2l0.4-0.1L481.004,321.5z M494.703,318.8l-1.6,0.3l0.1,0.301l5.1-1l-0.1-0.301l-1.699,0.301l-1.201-6
	l6.5-1.301l1.201,6l-1.701,0.301l0.1,0.3l5.102-1l-0.102-0.3l-1.6,0.3l-2.299-12l1.6-0.3l-0.1-0.301l-5.102,1l0.102,0.301
	l1.699-0.301l1.1,5.7l-6.5,1.3l-1.1-5.699l1.699-0.301l-0.1-0.3l-5.1,1l0.1,0.3l1.6-0.3L494.703,318.8z M508.604,316.1l-1.6,0.301
	l0.1,0.3l10.4-2l-0.701-3.7l-0.299,0.1c0.6,3-0.701,3.601-3.602,4.2l-2.398,0.5l-1.201-6l1.301-0.3c1.9-0.4,2.199,0.4,2.5,1.8
	l0.299-0.1l-0.898-4.7l-0.301,0.1c0.199,1.2,0.301,2.301-1.6,2.7l-1.301,0.3l-1.1-5.699l2.801-0.5c1.898-0.4,3.398,0.1,3.799,2.1
	l0.301-0.1l-0.801-3l-9.5,1.8l0.1,0.3l1.602-0.3L508.604,316.1z M520.303,301.4l1.201-0.2c2.5-0.5,3.299,0.899,3.6,2.3
	c0.4,2.1-0.701,3-2.801,3.5l-0.9,0.2L520.303,301.4z M520.902,313.7l-1.799,0.3l0.1,0.3l5.4-1.1l-0.1-0.3l-1.801,0.399l-1.199-6
	l1.199-0.2c2-0.399,2.5,0.601,2.9,1.7l0.299,1c0.602,2,1,3.101,3.201,2.7c0.699-0.1,1.1-0.3,1.4-0.5l-0.201-0.2
	c-0.199,0.101-0.4,0.3-0.699,0.3c-0.301,0.101-0.801,0.101-1.1-0.899l-0.701-2.101c-0.699-2.3-1.9-2.5-4-2.3l0,0
	c1.301-0.399,3.701-1.5,3.301-3.7c-0.5-2.699-2.801-2.699-4.9-2.3l-5.5,1.101l0.1,0.3l1.801-0.3L520.902,313.7z M532.402,311.5
	l-1.6,0.3l0.1,0.3l10.4-2l-0.699-3.699l-0.301,0.1c0.6,3-0.699,3.6-3.6,4.2l-2.4,0.5l-1.199-6l1.299-0.3
	c1.9-0.4,2.201,0.399,2.5,1.8l0.301-0.101l-0.9-4.699l-0.299,0.1c0.199,1.2,0.299,2.3-1.602,2.7l-1.299,0.3l-1.1-5.7l2.799-0.5
	c1.9-0.399,3.4,0.101,3.801,2.101l0.299-0.101l-0.799-3l-9.5,1.8l0.1,0.301l1.6-0.301L532.402,311.5z M451.803,244.5
	c0.3,1.6-0.7,2.4-2.4,2.7c-3.1,0.6-4.3-3.3-4.8-5.5c-0.5-2.3-0.8-6.3,2.4-6.9c2.199-0.4,4.3,1.2,4.8,3l0.3-0.1l-0.7-3.8l-0.3,0.1
	c0.1,0.4,0.1,0.9-0.4,1c-0.6,0.1-1.699-0.9-3.6-0.5c-3,0.6-5,4-4.3,7.6c0.8,4.2,3.7,6,6.899,5.4c2.7-0.5,3.9-2.2,4.4-2.8l-0.4-2.1
	l1.4-0.3l-0.1-0.3l-4.9,1l0.1,0.3l1.601-0.3V244.5z M457.403,233l1.2-0.2c2.5-0.5,3.3,0.9,3.5,2.3c0.4,2.1-0.7,3-2.8,3.4l-0.9,0.2
	L457.403,233z M457.903,245.2l-1.8,0.3l0.1,0.3l5.4-1l-0.1-0.3l-1.801,0.4l-1.199-6l1.1-0.2c2-0.4,2.5,0.6,2.9,1.6l0.3,1
	c0.6,2,1,3.1,3.1,2.7c0.7-0.1,1.101-0.3,1.4-0.5l-0.2-0.2c-0.2,0.1-0.4,0.3-0.7,0.3c-0.3,0.1-0.8,0.1-1.1-0.9l-0.7-2.1
	c-0.7-2.3-1.9-2.5-4-2.3l0,0c1.3-0.4,3.6-1.5,3.2-3.6c-0.5-2.7-2.8-2.7-4.9-2.3l-5.399,1.1l0.1,0.3l1.8-0.3L457.903,245.2z
	 M469.403,243l-1.6,0.3l0.1,0.3l10.3-2l-0.699-3.6l-0.301,0.1c0.601,3-0.699,3.6-3.6,4.2l-2.4,0.5l-1.1-5.9l1.3-0.3
	c1.9-0.4,2.2,0.4,2.5,1.8l0.3-0.1l-0.899-4.7l-0.3,0.1c0.199,1.2,0.3,2.3-1.601,2.7l-1.3,0.3l-1.1-5.7l2.8-0.5
	c1.899-0.4,3.399,0.1,3.7,2.1l0.3-0.1l-0.8-3l-9.4,1.8l0.1,0.3l1.601-0.3L469.403,243z M485.402,235.7l-3.6,0.7l0.701-5.7l0,0
	L485.402,235.7z M487.504,239.5l-1.701,0.3l0.1,0.3l5.201-1l-0.1-0.3l-1.5,0.3l-6.701-11.6h-0.199l-1.6,12.2
	c-0.102,1.1-0.4,1.2-0.901,1.3l-0.6,0.1l0.1,0.3l3.6-0.7l-0.1-0.3l-0.9,0.2c-0.6,0.1-0.801,0-0.9-0.3c-0.1-0.3,0-0.8,0.1-1.1
	l0.301-2.4l3.801-0.7L487.504,239.5z M494.803,238.1l-1.799,0.4l0.1,0.3l5.4-1.1l-0.102-0.3l-1.799,0.4l-2.301-11.9l0.4-0.1
	c3.1-0.6,3.9-0.3,4.5,2.6l0.301-0.1l-0.701-3.7l-10.799,2.1l0.699,3.7l0.301-0.1c-0.602-2.9,0.1-3.5,3.199-4.1l0.4-0.1
	L494.803,238.1z M463.203,298.3c7.601-2.6,11.101-20.2,9.4-25.2c-0.4-1-0.9-1.5-1.7-1.199c-5.2,1.8-10.5,21.199-9,25.6
	C462.103,298.2,462.503,298.6,463.203,298.3 M476.103,271.9c2.2,6.399-4.4,24.6-12.8,27.6c-2.8,1-4.4-0.1-5.2-2.3
	c-0.5-1.3-0.6-3.101-0.4-5.101c-3.6,7.301-7.399,12.2-10.1,13.2c-1.4,0.5-2.5-0.1-3.2-2c-0.899-2.399,1.4-12.6,3.8-22l-5.199,1.8
	c-0.101,0-0.2,0-0.2-0.1c-0.101-0.3,0.3-1.1,1-1.3c1.6-0.601,3.2-1.2,4.8-1.7c1.8-6.9,3.5-13.1,3.8-15.1c0.101-0.6,0.101-0.7,0.7-1
	c0.4-0.2,3.1-1.3,4.3-1.7c0.601-0.2,0.9-0.2,0.9,0c0,0.1,0,0.3-0.101,0.6c-0.899,2.3-3.1,8.601-5.199,15.7c3.8-1.3,6.8-2.3,6.8-2.3
	c0.3-0.101,0.399-0.101,0.399,0c0.101,0.3-0.5,1.2-0.7,1.3l-6.899,2.4c-3.2,10.5-6.2,22-5.7,23.5c0.2,0.5,0.6,0.699,1.2,0.5
	c1.899-0.7,5.7-4.9,10.1-14.801c1.601-7.6,6.601-16.699,13.5-19.1C474.103,269.1,475.503,270,476.103,271.9 M507.504,244.5
	c-2.301,0.8-4.301,7-3.4,9.6c0.299,0.9,1,1.4,2.199,1c2.5-0.9,4.4-6.8,3.5-9.3C509.203,244.2,507.902,244.3,507.504,244.5
	 M531.402,274.4c8.201-2.9,5.102-18.2,4.301-21.2l-0.4,0.8c-0.299,0.9-0.9,2.4-1.299,3.4c-2.4,7.1-5.301,12.4-8.201,16.2
	C527.004,274.9,529.203,275.2,531.402,274.4 M524.203,253.3c-3.4,1.2-7.5,9.6-8.6,16.4c7.4-3,11.4-12.8,10.4-15.7
	C525.703,253.3,525.104,253,524.203,253.3 M549.902,251.7c-1.799,4.6-3.5,9.7-6,14.1c-2.6,4.5-6.199,8.5-11,10.2
	c-3.699,1.3-6.299,0.3-7.799-1.2c-2.6,3.101-5.1,5-7.301,5.7c-3,1.1-5.4,0.1-6.4-2.6c-0.398-1.2-0.6-2.601-0.5-4.301
	c-3.398,7.2-6.799,12-9.398,12.9c-1.301,0.5-2.4-0.2-3-2c-0.602-1.8-0.301-5.1,0.398-8.7c-3.699,8.601-7.699,14.3-10.398,15.3
	c-1.301,0.5-2.4-0.199-3-2c-1.4-4.1,3.1-15.699,2.6-17c-0.301-0.899-2.9-2-3.5-1.8c-6.5,20.101-9.901,24.8-11.6,25.4
	c-0.5,0.2-1.101-0.2-1.2-0.5c-0.101-0.2,0-0.2,0-0.4c0.2,0.2,0.5,0.101,0.7,0c3.3-1.1,10.399-19.5,12.5-33.2
	c0.199-0.1,1.199-0.2,1.699-0.2c0.1,0,0.199,0.1,0.199,0.1c0.201,0.5-0.5,2.5,0.301,4.8c0.699,2,4.6,2.3,5.301,4.4
	c0.5,1.399,0.1,2.899-0.701,4.899c-1,2.4-5.1,10.2-3.9,13.5c0.201,0.5,0.5,0.7,1.102,0.5c1.898-0.699,5.898-5.8,11-18.6
	c0.898-3.6,1.799-7.1,2.199-9.2c0-0.4,0.199-0.7,0.6-0.9l3.6-1.3c0.602-0.2,1-0.1,1.102,0.2c0.1,0.2,0,0.5-0.102,0.7
	c-2.398,5.8-7.398,21.3-6.5,24c0.201,0.5,0.5,0.7,1.102,0.5c1.699-0.6,5-4.6,9.199-14.3c1.5-7.7,6.9-17.3,13.6-19.6
	c1.5-0.5,2.4-0.1,2.801,1c1.4,3.9-3.701,15.4-12.301,18.8c-0.299,2.1-0.199,4,0.301,5.399c0.6,1.7,1.9,2.3,3.699,1.7
	c1.4-0.5,3.201-1.8,5-4c-0.299-0.4-0.5-0.8-0.6-1.3c-0.5-1.5-0.199-3.101,1-3.5c0.4-0.101,0.801,0,1.4,0.3
	c-0.801,1.3-1,2.4-0.701,3.2c2.602-3.4,5.4-8.5,7.9-15.5l0,0v-0.1c0-0.1,0.1-0.2,0.1-0.3l0,0c2.801-7,3.701-10.3,4.102-11.6
	c0.199-0.4,0.199-0.5,0.5-0.6c0.398-0.1,1.6,0.6,1.799,1c0,0.1,0,0.2-0.1,0.3c-0.699,1-1.6,2.5-2.4,3.9c0.1,4.6,4.9,12.6,3.301,18.9
	c0.6-0.8,1.699-2.4,2.299-3.4c2-3.4,4-7.9,6.301-14.1L549.902,251.7z M417.503,275.8c-2.801-6.7,6.8-10.4,6.8-10.4
	c23.1-9.5,14.1-15.4,13.8-15.3c-0.1,0.1-0.3,0.3-0.3,0.6c-0.7,2.5-2.601,5.1-7.101,7.9c-3.5,2.2-12.1,7-12.1,7
	c-6.1,3.6-6.7,7.8-3.6,13.3c4.3,7.5,15.399,4.5,20.6,13.1c4.1,6.8,0.6,13.1-4.8,16.3c-5.4,3.2-12.601,3.101-16.2-2.899
	c-2.5-4.2-2-9.801,3-12.7c2.3-1.4,6.3-2.101,8,0.8c1.1,1.9,0.5,4.4-1.7,5.7c-0.399,0.2-0.899,0.399-1.399,0.6
	c1.199,1.101,2.399,1.101,3.399,0.5c1.9-1.1,2.9-4.399,1.101-7.3c-2.2-3.7-7.301-3.1-10.801-1c-6.6,3.9-7.5,10.9-4.6,15.7
	c4.2,7,12.3,6.8,18.9,2.899c8.1-4.699,14.399-15.3,8.1-24.699C435.603,281.4,419.403,280.4,417.503,275.8"/>
</svg>
