<?xml version="1.0" encoding="utf-8"?>
<!-- Generator: Adobe Illustrator 16.0.0, SVG Export Plug-In . SVG Version: 6.00 Build 0)  -->
<!DOCTYPE svg PUBLIC "-//W3C//DTD SVG 1.0//EN" "http://www.w3.org/TR/2001/REC-SVG-20010904/DTD/svg10.dtd">
<svg version="1.0" id="Layer_1" xmlns="http://www.w3.org/2000/svg" xmlns:xlink="http://www.w3.org/1999/xlink" x="0px" y="0px"
	 width="20px" height="44px" viewBox="0 0 20 44" enable-background="new 0 0 20 44" xml:space="preserve">
<path id="path-1" fill="#A6A8AB" d="M9.9,8.522c-0.041-0.18-0.064-0.367-0.064-0.56c0-1.385,1.124-2.508,2.508-2.508
	c0.715,0,1.358,0.297,1.815,0.774c0.399,0,1.211-0.328,1.563-0.555c-0.134,0.516-0.678,1.165-1.045,1.363
	c0.572-0.056,1.187-0.282,1.391-0.396c-0.353,0.588-0.846,1.033-1.215,1.286l0.002,0.036l-0.002,0.031l0.002,0.014
	c0.168,4.048-2.975,7.328-7.022,7.328c-1.425,0-2.77-0.407-3.925-1.108c0.225,0.035,0.447,0.051,0.663,0.051
	c1.419,0,2.605-0.689,2.954-1.094c-1.13,0-2.163-0.965-2.242-1.703c0.103,0.017,0.266,0.035,0.442,0.035
	c0.212,0,0.441-0.026,0.603-0.113c-1.533-0.42-1.953-1.578-1.936-2.452c0.223,0.218,0.665,0.288,0.97,0.288
	c0.045,0,0.088-0.002,0.126-0.004C4.625,8.7,3.966,7.235,4.727,5.919C5.964,7.53,8.02,8.473,9.9,8.522 M10.017-0.005
	c-5.525,0-10.005,4.479-10.005,10.004c0,5.524,4.48,10.005,10.005,10.005s10.004-4.48,10.004-10.005
	C20.021,4.474,15.542-0.005,10.017-0.005"/>
<path id="path-1_1_" fill="#FFFFFF" d="M9.888,32.519c-0.041-0.181-0.064-0.367-0.064-0.561c0-1.385,1.124-2.508,2.508-2.508
	c0.715,0,1.357,0.297,1.814,0.773c0.4,0,1.211-0.328,1.564-0.555c-0.135,0.516-0.678,1.165-1.045,1.363
	c0.572-0.057,1.186-0.282,1.391-0.396c-0.354,0.588-0.846,1.033-1.215,1.286l0.002,0.036l-0.002,0.031l0.002,0.014
	c0.168,4.048-2.975,7.328-7.023,7.328c-1.425,0-2.77-0.407-3.925-1.108c0.225,0.035,0.447,0.051,0.663,0.051
	c1.419,0,2.605-0.689,2.954-1.094c-1.13,0-2.163-0.965-2.242-1.703c0.103,0.017,0.266,0.035,0.442,0.035
	c0.212,0,0.441-0.026,0.603-0.113c-1.533-0.42-1.953-1.578-1.936-2.452c0.223,0.218,0.665,0.287,0.97,0.287
	c0.045,0,0.088-0.002,0.126-0.004c-0.863-0.533-1.522-1.998-0.761-3.314C5.952,31.526,8.008,32.47,9.888,32.519 M10.005,23.991
	C4.48,23.991,0,28.47,0,33.995C0,39.52,4.48,44,10.005,44c5.524,0,10.004-4.48,10.004-10.005
	C20.01,28.47,15.529,23.991,10.005,23.991"/>
</svg>
