<svg xmlns="http://www.w3.org/2000/svg" xmlns:xlink="http://www.w3.org/1999/xlink" preserveAspectRatio="xMidYMid" width="110" height="85" viewBox="0 0 110 85">
  <defs>
    <style>

      .cls-2 {
        fill: #ee453c;
      }
    </style>
  </defs>
  <path d="M109.000,85.000 C109.000,85.000 109.000,0.000 109.000,0.000 C109.000,0.000 110.000,0.000 110.000,0.000 C110.000,0.000 110.000,85.000 110.000,85.000 C110.000,85.000 109.000,85.000 109.000,85.000 ZM64.000,0.000 C64.000,0.000 106.000,0.000 106.000,0.000 C106.000,0.000 106.000,85.000 106.000,85.000 C106.000,85.000 64.000,85.000 64.000,85.000 C64.000,85.000 64.000,0.000 64.000,0.000 ZM4.000,0.000 C4.000,0.000 46.000,0.000 46.000,0.000 C46.000,0.000 46.000,85.000 46.000,85.000 C46.000,85.000 4.000,85.000 4.000,85.000 C4.000,85.000 4.000,0.000 4.000,0.000 ZM0.000,0.000 C0.000,0.000 1.000,0.000 1.000,0.000 C1.000,0.000 1.000,85.000 1.000,85.000 C1.000,85.000 0.000,85.000 0.000,85.000 C0.000,85.000 0.000,0.000 0.000,0.000 Z" id="path-1" class="cls-2" fill-rule="evenodd"/>
</svg>
